<?xml version="1.0" encoding="UTF-8"?>
<svg version="1.1" xmlns="http://www.w3.org/2000/svg" width="480" height="480">
<path d="M0 0 C158.4 0 316.8 0 480 0 C480 158.4 480 316.8 480 480 C321.6 480 163.2 480 0 480 C0 321.6 0 163.2 0 0 Z " fill="#FCFCFC" transform="translate(0,0)"/>
<path d="M0 0 C0.77490784 -0.00012085 1.54981567 -0.0002417 2.34820557 -0.00036621 C14.3567792 0.02630641 25.43232398 0.95457834 37 4.375 C38.15242187 4.66375 39.30484375 4.9525 40.4921875 5.25 C60.63747402 10.66072444 80.51187642 24.29144612 91.30078125 42.22265625 C99.27604731 57.01814984 104.86797534 72.35590852 101 89.375 C101.50144531 89.19324219 102.00289063 89.01148438 102.51953125 88.82421875 C109.2611866 86.58465692 116.03639324 85.46999826 123.04614258 84.46557617 C127.33918612 83.84102885 131.45280374 83.02013912 135.65478516 81.91723633 C141.16563372 80.6430749 146.79199838 79.88980175 152.375 79 C162.32872716 77.38831242 172.18629388 75.57549131 182.0078125 73.2890625 C186.23731675 72.30531114 190.48557146 71.44292977 194.75 70.625 C196.00296875 70.38265625 197.2559375 70.1403125 198.546875 69.890625 C202 69.375 202 69.375 208 69.375 C208 73.665 208 77.955 208 82.375 C206.2984375 82.643125 204.596875 82.91125 202.84375 83.1875 C187.49720436 85.65267884 172.2378956 88.43280676 157 91.5 C156.15622803 91.66967285 155.31245605 91.8393457 154.44311523 92.01416016 C146.40137843 93.63487822 138.36816805 95.28639621 130.3515625 97.02734375 C125.37490273 98.1015053 120.40559085 99.0358431 115.375 99.8125 C109.9795514 100.67785139 104.61576396 101.62566607 99.2641449 102.73112488 C98.43447708 102.90235367 97.60480927 103.07358246 96.75 103.25 C95.59828056 103.48782448 95.59828056 103.48782448 94.42329407 103.73045349 C88.27507436 104.97395402 82.11005602 106.03541842 75.91770935 107.03417969 C59.17031973 109.73598693 42.55622051 112.96724989 25.9375 116.375 C9.74391899 119.6908335 -6.44810478 122.86411115 -22.74649048 125.62463379 C-32.17107242 127.22133298 -41.55893472 128.96127346 -50.94207764 130.78369141 C-56.63851901 131.88520882 -62.33876136 132.96691212 -68.0382576 134.05249023 C-71.70603792 134.75142373 -75.37352299 135.45190255 -79.04101562 136.15234375 C-83.55792596 137.01500092 -88.07486965 137.8774801 -92.59204102 138.73876953 C-97.03159593 139.58530526 -101.47094586 140.43290957 -105.91015625 141.28125 C-106.62517807 141.41782642 -107.34019989 141.55440285 -108.07688904 141.69511795 C-116.43644593 143.2929372 -124.78837249 144.92241009 -133.12890625 146.6171875 C-142.64270216 148.54656343 -152.19656772 150.103704 -161.78515625 151.6171875 C-163.02910156 151.81828125 -164.27304688 152.019375 -165.5546875 152.2265625 C-166.65280762 152.40010254 -167.75092773 152.57364258 -168.88232422 152.75244141 C-172.04235838 153.38345841 -174.95122251 154.3426111 -178 155.375 C-179.56335299 155.69116058 -181.13587273 155.96583896 -182.71484375 156.19140625 C-183.56626953 156.31580078 -184.41769531 156.44019531 -185.29492188 156.56835938 C-186.16697266 156.69017578 -187.03902344 156.81199219 -187.9375 156.9375 C-188.80568359 157.06318359 -189.67386719 157.18886719 -190.56835938 157.31835938 C-193.04485103 157.67588765 -195.52224962 158.02631761 -198 158.375 C-199.37635118 158.57127057 -200.75265962 158.7678414 -202.12890625 158.96484375 C-203.07636719 159.10019531 -204.02382812 159.23554688 -205 159.375 C-205 155.415 -205 151.455 -205 147.375 C-191.36511639 143.99241121 -177.62091278 141.23215661 -163.83544922 138.53833008 C-160.13799809 137.81504266 -156.44200906 137.08460544 -152.74609375 136.35351562 C-141.33078242 134.10828329 -129.92870131 131.9133278 -118.41140747 130.25254822 C-114.90763356 130.00802753 -114.90763356 130.00802753 -112 128.375 C-109.0849097 127.80555422 -106.18034057 127.28947911 -103.25 126.8125 C-102.43789062 126.67392578 -101.62578125 126.53535156 -100.7890625 126.39257812 C-99.99757813 126.26173828 -99.20609375 126.13089844 -98.390625 125.99609375 C-97.66907227 125.8767749 -96.94751953 125.75745605 -96.20410156 125.63452148 C-93.78536694 125.34972807 -91.43324841 125.33255962 -89 125.375 C-89.20157715 124.65546143 -89.4031543 123.93592285 -89.61083984 123.19458008 C-90.53996513 119.86098957 -91.45751332 116.52431167 -92.375 113.1875 C-92.69210938 112.05634766 -93.00921875 110.92519531 -93.3359375 109.75976562 C-99.8425283 85.97004303 -100.35300326 63.1639729 -88 41.375 C-85.84404938 38.19283488 -83.51761158 35.27406788 -81 32.375 C-80.401875 31.57964844 -79.80375 30.78429687 -79.1875 29.96484375 C-60.10398452 7.37132453 -28.17551372 -0.06741091 0 0 Z " fill="#050505" transform="translate(238,51.625)"/>
<path d="M0 0 C0 4.29 0 8.58 0 13 C-1.13687256 13.22026855 -2.27374512 13.44053711 -3.44506836 13.66748047 C-8.943122 14.73369637 -14.44042016 15.80377586 -19.9375 16.875 C-20.9572995 17.07363647 -21.977099 17.27227295 -23.02780151 17.47692871 C-38.18013483 20.43179949 -53.30990848 23.48469058 -68.42919922 26.60388184 C-83.31183759 29.67283169 -98.17586693 32.6866303 -113.17138672 35.15795898 C-126.28259111 37.3309213 -139.32129316 39.88795744 -152.36889648 42.41064453 C-153.25748352 42.58183304 -154.14607056 42.75302155 -155.06158447 42.92939758 C-156.74473693 43.25384256 -158.42757295 43.57993468 -160.11004639 43.90788269 C-165.77601733 45 -165.77601733 45 -168 45 C-168.13728516 45.99580078 -168.13728516 45.99580078 -168.27734375 47.01171875 C-169.20838783 50.86171185 -170.84549572 54.26572209 -172.5625 57.8125 C-172.91892578 58.55878662 -173.27535156 59.30507324 -173.64257812 60.07397461 C-177.64626634 68.41997581 -181.80960832 76.68571613 -185.98388672 84.94726562 C-186.97028881 86.90141213 -187.95457569 88.85660197 -188.9375 90.8125 C-189.26637207 91.46629639 -189.59524414 92.12009277 -189.93408203 92.79370117 C-192.11474764 97.15556091 -194.20219027 101.5543019 -196.25830078 105.97607422 C-201.04525711 116.2595532 -206.36694444 126.15685282 -212 136 C-214.74636735 132.65557879 -216.55804928 129.01962135 -218.37109375 125.12109375 C-218.68971878 124.44477905 -219.00834381 123.76846436 -219.33662415 123.07165527 C-220.37524711 120.8625751 -221.4066793 118.65023046 -222.4375 116.4375 C-223.15455044 114.90629768 -223.87167349 113.37512937 -224.58886719 111.84399414 C-230.49227498 99.21044256 -236.20236337 86.49674917 -241.80273438 73.72607422 C-243.52197561 69.81150496 -245.26033244 65.90552181 -247 62 C-258.35598371 62.42960498 -269.19062113 64.64488118 -280.2890625 66.9296875 C-282.24262649 67.32543237 -284.19635519 67.7203649 -286.15023804 68.11453247 C-291.27009147 69.14907893 -296.38815683 70.19218956 -301.5057373 71.23791504 C-309.67111828 72.90563011 -317.83858037 74.56302457 -326.00715256 76.21503067 C-328.82519396 76.78666082 -331.6420862 77.36369654 -334.45889282 77.94137573 C-344.01944029 79.8881575 -353.57303004 81.65637875 -363.23026466 83.05921745 C-366.92443115 83.30864919 -366.92443115 83.30864919 -370 85 C-372.58155651 85.48021845 -375.15596695 85.91046571 -377.75 86.3125 C-385.90003728 87.61374549 -393.9991525 89.11493826 -402.09277344 90.72973633 C-402.93614258 90.89497803 -403.77951172 91.06021973 -404.6484375 91.23046875 C-405.39270996 91.37895264 -406.13698242 91.52743652 -406.90380859 91.68041992 C-409 92 -409 92 -413 92 C-413 87.71 -413 83.42 -413 79 C-411.33324219 78.72800781 -409.66648437 78.45601563 -407.94921875 78.17578125 C-400.55223326 76.94204769 -393.18185879 75.57538413 -385.8125 74.1875 C-384.76944702 73.99149704 -384.76944702 73.99149704 -383.70532227 73.79153442 C-368.36982099 70.90749308 -353.05210338 67.93171034 -337.7890625 64.68359375 C-327.93384681 62.58913698 -318.12174302 60.63165404 -308.15307617 59.16357422 C-300.86051411 58.05492592 -293.69690425 56.45740041 -286.50268555 54.84033203 C-279.76527646 53.34035438 -273.0277819 52.07044596 -266.19702148 51.07617188 C-262.23965452 50.47532272 -258.46024368 49.61022247 -254.60546875 48.5234375 C-249.45663889 47.07829183 -244.338482 46.0945305 -239.0625 45.25 C-227.06690692 43.25090387 -215.14392775 40.91845096 -203.21704102 38.54980469 C-194.88568456 36.90314487 -186.5458285 35.39840145 -178.16415405 34.02999878 C-173.01095219 33.18387837 -167.90755752 32.21059532 -162.8125 31.0625 C-155.92237294 29.56011444 -149.01743148 28.28834424 -142.0625 27.125 C-132.19276522 25.46308016 -122.4299223 23.4258471 -112.65283203 21.29052734 C-98.55315865 18.22267778 -84.38554272 15.5036791 -70.18359375 12.953125 C-65.07202378 12.02816116 -60.01174504 10.92648782 -54.9453125 9.78125 C-51.72062148 9.10195568 -48.48263866 8.61289514 -45.22265625 8.1328125 C-36.53218045 6.82438124 -27.93077866 5.08535299 -19.3125 3.375 C-16.85280766 2.88782735 -14.39296737 2.40146152 -11.93266296 1.91738892 C-10.41537569 1.61878868 -8.8984419 1.31838514 -7.38191223 1.01596069 C-2.22469677 0 -2.22469677 0 0 0 Z " fill="#060606" transform="translate(446,242)"/>
<path d="M0 0 C15.98655048 9.60536436 28.23337978 24.43074727 33.35546875 42.48828125 C34.54148603 48.72523925 34.68620665 55.09295996 34.9140625 61.42578125 C33.38411458 61.73177083 31.85416667 62.03776042 30.32421875 62.34375 C29.32414795 62.54379639 28.32407715 62.74384277 27.29370117 62.94995117 C25.05823677 63.39697824 22.82272136 63.84375028 20.5871582 64.2902832 C14.76002789 65.45456901 8.93373451 66.62270679 3.109375 67.80078125 C2.0174585 68.02096924 0.92554199 68.24115723 -0.19946289 68.46801758 C-2.26928599 68.88552063 -4.33880636 69.30452849 -6.40795898 69.7253418 C-12.25995684 70.90357996 -18.12035184 71.9556879 -24.01147461 72.91870117 C-29.41970095 73.81069562 -34.81488068 74.77580984 -40.2109375 75.73828125 C-41.41145752 75.95194336 -42.61197754 76.16560547 -43.84887695 76.38574219 C-53.40868905 78.09876849 -62.94678652 79.91363901 -72.47119141 81.8137207 C-78.33812295 82.96755372 -84.13280187 83.85704971 -90.0859375 84.42578125 C-94.84597935 61.90058321 -92.9947984 40.66517283 -80.578125 21.04296875 C-79.16548004 19.07452905 -77.68362733 17.24658986 -76.0859375 15.42578125 C-75.53808594 14.78511719 -74.99023438 14.14445312 -74.42578125 13.484375 C-66.66643968 5.06606599 -56.23228485 -1.81282709 -45.0859375 -4.57421875 C-44.03148437 -4.91710937 -42.97703125 -5.26 -41.890625 -5.61328125 C-27.69666847 -9.19820251 -12.87797382 -6.56939677 0 0 Z " fill="#FAFAFA" transform="translate(267.0859375,86.57421875)"/>
<path d="M0 0 C7.22655607 0.55941728 14.45102405 1.14120511 21.67480469 1.73535156 C24.56619587 1.96547403 27.45768678 2.17161056 30.3515625 2.3671875 C77.4492346 5.82110889 77.4492346 5.82110889 92.9375 18.875 C95.14379039 22.21786422 95.9164453 24.04147092 95.5703125 27.984375 C94.19928401 32.82992776 90.93161309 35.78642109 86.76171875 38.40625 C81.54922697 41.13303996 76.09378442 43.17867158 70.54296875 45.10546875 C68.84747738 45.70188584 67.17004651 46.35233874 65.515625 47.0546875 C62.84021063 48.06004508 60.38835803 48.52596728 57.5625 48.9375 C53.30970673 49.59256322 49.18015457 50.42284807 45 51.4375 C34.32926973 53.76181749 23.43509508 54.63516445 12.57714844 55.65917969 C10.35285757 55.87110366 8.12934045 56.09154709 5.90722656 56.32519531 C-44.52174627 61.61847303 -132.70588942 67.80548784 -176.4296875 35.3984375 C-179.60265235 32.57276233 -180.75602747 30.24697069 -181.5625 26.125 C-180.72483482 21.47130453 -178.60521245 18.98797763 -175 16 C-154.07202385 3.24591352 -122.01957301 1.36231222 -98 2 C-98 2.66 -98 3.32 -98 4 C-99.16849487 4.10489746 -99.16849487 4.10489746 -100.3605957 4.21191406 C-139.54216062 6.58627159 -139.54216062 6.58627159 -174 23 C-175.26935717 25.58203131 -175.26935717 25.58203131 -176 28 C-155.67445455 38.2079406 -134.46171373 41.06005109 -112.09423828 42.99829102 C-111.40972595 43.0579454 -110.72521362 43.11759979 -110.0199585 43.17906189 C-108.13514218 43.34191115 -106.24995382 43.50043762 -104.36474609 43.65869141 C-101 44 -101 44 -98.25114441 44.48696899 C-86.71468374 46.30742397 -74.77663089 46.16864745 -63.12890625 46.203125 C-61.64887463 46.21015042 -60.16884331 46.21723721 -58.68881226 46.22438049 C-53.98003708 46.24378698 -49.27131113 46.24881504 -44.5625 46.25 C-43.76010517 46.25044186 -42.95771034 46.25088371 -42.13100052 46.25133896 C26.23256609 48.93182006 26.23256609 48.93182006 89 28 C88.95571019 25.60405962 88.95571019 25.60405962 88 23 C66.21340599 7.18935262 33.79619923 5.54587214 8.00415039 3.32543945 C5.28423685 3.03079136 2.67039893 2.58615489 0 2 C0 1.34 0 0.68 0 0 Z " fill="#080808" transform="translate(279,371)"/>
<path d="M0 0 C2.71875 0.31640625 2.71875 0.31640625 4.85533142 1.85476685 C7.36324136 5.16780128 7.28818662 8.02489069 7.25219727 12.01904297 C7.26512062 13.17589096 7.26512062 13.17589096 7.27830505 14.35610962 C7.3009891 16.90311343 7.29422104 19.44901888 7.28515625 21.99609375 C7.29039161 23.76962613 7.29666777 25.54315571 7.30393982 27.31668091 C7.31434912 31.03400776 7.30977632 34.75095196 7.29516602 38.46826172 C7.27799649 43.22554024 7.30144738 47.98160891 7.33665562 52.73875237 C7.35864998 56.40202802 7.35718293 60.06501525 7.3488903 63.72833633 C7.34807152 65.48177541 7.35492096 67.23523582 7.36966133 68.98861313 C7.3871413 71.44481731 7.37253771 73.89886196 7.34985352 76.35498047 C7.36154572 77.07518372 7.37323792 77.79538696 7.38528442 78.53741455 C7.2794905 84.18579123 5.57603719 86.48846121 1.71875 90.31640625 C-0.31420898 91.36474609 -0.31420898 91.36474609 -2.27734375 91.77734375 C-3.36305664 92.01904297 -3.36305664 92.01904297 -4.47070312 92.265625 C-5.21255859 92.40613281 -5.95441406 92.54664063 -6.71875 92.69140625 C-7.82573242 92.93697266 -7.82573242 92.93697266 -8.95507812 93.1875 C-19.42633989 95.4027536 -19.42633989 95.4027536 -23.91340637 92.77485657 C-27.03973443 89.52889804 -26.99476141 86.91238452 -26.9440918 82.62963867 C-26.95964363 81.47520012 -26.95964363 81.47520012 -26.97550964 80.29743958 C-27.0025965 77.75504089 -26.992913 75.21436593 -26.98046875 72.671875 C-26.98637839 70.90073669 -26.99362541 69.12960238 -27.00215149 67.35847473 C-27.01403629 63.64526574 -27.00731973 59.93265592 -26.98803711 56.21948242 C-26.96519401 51.47106147 -26.99187598 46.72443522 -27.03309917 41.97619152 C-27.05873702 38.31712273 -27.05608038 34.65847957 -27.04520607 30.99935341 C-27.04372313 29.24952888 -27.05136595 27.49967112 -27.06845665 25.74992943 C-27.19427809 10.36687826 -27.19427809 10.36687826 -23.48950195 5.77246094 C-20.10225785 2.59535189 -16.27461047 1.89615601 -11.78125 1.37890625 C-10.68103516 1.21165039 -10.68103516 1.21165039 -9.55859375 1.04101562 C-6.38177081 0.58353039 -3.19443261 0.30803457 0 0 Z " fill="#0C0C0C" transform="translate(379.28125,154.68359375)"/>
<path d="M0 0 C2.1706256 2.91899569 1.85237829 5.98523684 1.84584045 9.48530579 C1.85591629 10.25639175 1.86599213 11.02747772 1.87637329 11.82192993 C1.90489779 14.37417557 1.91073241 16.92583053 1.91395569 19.47822571 C1.92359523 21.25318648 1.93368759 23.02814485 1.94421387 24.80310059 C1.96218753 28.52632673 1.96773379 32.249344 1.96595764 35.97261047 C1.96565307 40.7378706 2.00657431 45.50178662 2.05827427 50.2667284 C2.09167795 53.93427649 2.09771396 57.60150139 2.09612846 61.26918602 C2.09966365 63.02544975 2.11290601 64.78172228 2.13612556 66.53783607 C2.16561678 68.99913844 2.156865 71.45754781 2.1388092 73.91889954 C2.15566772 74.64067383 2.17252625 75.36244812 2.18989563 76.10609436 C2.11350033 80.21649153 1.31036913 82.44870246 -1.48788452 85.32826233 C-3.92425523 87.53002301 -5.91567125 88.76061564 -9.19151306 89.39228821 C-10.01135681 89.55793274 -10.83120056 89.72357727 -11.67588806 89.89424133 C-12.932724 90.11177063 -12.932724 90.11177063 -14.21495056 90.33369446 C-15.06057556 90.5057843 -15.90620056 90.67787415 -16.77745056 90.85517883 C-21.7976493 91.81725162 -25.02380839 92.21080073 -29.68029785 89.82533264 C-32.03218957 87.44944299 -32.08095136 85.78202387 -32.14317322 82.51268005 C-32.13664734 81.78483307 -32.13012146 81.05698608 -32.12339783 80.30708313 C-32.1320134 79.53599716 -32.14062897 78.76491119 -32.14950562 77.97045898 C-32.17223186 75.41802006 -32.16541309 72.8666736 -32.15635681 70.31416321 C-32.16159088 68.53920159 -32.16786656 66.76424276 -32.17514038 64.98928833 C-32.18555791 61.26598543 -32.180966 57.54306435 -32.16636658 53.81977844 C-32.1492093 49.05462438 -32.17262841 44.29067953 -32.20785618 39.52566051 C-32.22985293 35.85809376 -32.22838269 32.19081504 -32.22009087 28.5232029 C-32.21927195 26.76697275 -32.22612391 25.01072133 -32.24086189 23.25455284 C-32.25834306 20.79345153 -32.24373647 18.33450524 -32.22105408 15.87348938 C-32.23274628 15.15171509 -32.24443848 14.4299408 -32.25648499 13.68629456 C-32.15081126 8.03226675 -30.44864242 5.72960562 -26.58995056 1.89619446 C-24.63291931 0.86372375 -24.63291931 0.86372375 -22.77745056 0.47041321 C-22.09424744 0.31379211 -21.41104431 0.15717102 -20.70713806 -0.00419617 C-19.65913025 -0.20819031 -19.65913025 -0.20819031 -18.58995056 -0.41630554 C-17.89127869 -0.57163757 -17.19260681 -0.7269696 -16.47276306 -0.88700867 C-14.51700873 -1.31690561 -12.55358688 -1.71148066 -10.58995056 -2.10380554 C-9.64377869 -2.31907898 -8.69760681 -2.53435242 -7.72276306 -2.75614929 C-4.35699746 -3.30478141 -2.67828983 -1.859373 0 0 Z " fill="#0B0B0B" transform="translate(194.58995056152344,194.1038055419922)"/>
<path d="M0 0 C0 29.7 0 59.4 0 90 C-4.68510114 91.87404046 -7.11476189 92.19157797 -12 92 C-18.46336429 70.36627457 -18.46336429 70.36627457 -19.48046875 61.86328125 C-19.98382295 59.08915623 -20.71200355 56.51639758 -21.5324707 53.82104492 C-21.80622025 52.91875656 -22.07996979 52.0164682 -22.36201477 51.08683777 C-22.5725499 50.3981813 -22.78308502 49.70952484 -23 49 C-23.01030746 49.57407089 -23.02061493 50.14814178 -23.03123474 50.73960876 C-23.13907434 56.69265662 -23.25368977 62.64554615 -23.37231445 68.59838867 C-23.41573588 70.82263896 -23.45740545 73.04692415 -23.49731445 75.27124023 C-23.55484306 78.46088195 -23.61858684 81.6503468 -23.68359375 84.83984375 C-23.70866249 86.34139259 -23.70866249 86.34139259 -23.73423767 87.87327576 C-23.75418289 88.79415482 -23.77412811 89.71503387 -23.79467773 90.66381836 C-23.81022202 91.47878281 -23.8257663 92.29374725 -23.84178162 93.13340759 C-24 95 -24 95 -25 96 C-28.3 96 -31.6 96 -35 96 C-35 66.3 -35 36.6 -35 6 C-29.555 5.505 -29.555 5.505 -24 5 C-21.59643824 11.88162623 -19.71879258 18.79393267 -18 25.875 C-17.50120189 27.91435684 -17.00120752 29.95342148 -16.5 31.9921875 C-16.2834375 32.88276855 -16.066875 33.77334961 -15.84375 34.69091797 C-14.62350114 39.47658148 -13.2994799 44.23524035 -12 49 C-11.67 33.49 -11.34 17.98 -11 2 C-3 0 -3 0 0 0 Z " fill="#090909" transform="translate(151,199)"/>
<path d="M0 0 C0 30.03 0 60.06 0 91 C-5.445 91.495 -5.445 91.495 -11 92 C-14.17971881 80.46821977 -17.33204728 68.94099722 -20.140625 57.3125 C-20.95606346 54.16935538 -21.97314568 51.08056296 -23 48 C-23.33 63.84 -23.66 79.68 -24 96 C-31 98 -31 98 -35 98 C-35 67.97 -35 37.94 -35 7 C-27 5 -27 5 -23 5 C-16.7336979 29.86114544 -16.7336979 29.86114544 -14.20605469 40.99584961 C-13.38803721 44.59472466 -13.38803721 44.59472466 -12 48 C-11.67 32.82 -11.34 17.64 -11 2 C-2 0 -2 0 0 0 Z " fill="#DF343C" transform="translate(103,208)"/>
<path d="M0 0 C0 29.7 0 59.4 0 90 C-2.75078884 90.91692961 -4.35948913 91.10886083 -7.1875 91.0625 C-8.445625 91.041875 -9.70375 91.02125 -11 91 C-11.30292969 89.76507813 -11.60585938 88.53015625 -11.91796875 87.2578125 C-14.24513908 77.82916428 -16.65140606 68.43439849 -19.29956055 59.09033203 C-19.49332275 58.40567871 -19.68708496 57.72102539 -19.88671875 57.015625 C-20.05389404 56.43071289 -20.22106934 55.84580078 -20.39331055 55.24316406 C-21.3131545 51.84214748 -22.14549544 48.41801823 -23 45 C-23.33 61.5 -23.66 78 -24 95 C-28.95 95.495 -28.95 95.495 -34 96 C-34 66.3 -34 36.6 -34 6 C-28.555 5.505 -28.555 5.505 -23 5 C-22.56300781 6.58361328 -22.56300781 6.58361328 -22.1171875 8.19921875 C-21.70325857 9.69534946 -21.28918373 11.19143981 -20.875 12.6875 C-20.65489258 13.48389893 -20.43478516 14.28029785 -20.20800781 15.10083008 C-18.95519211 19.61716953 -17.6788041 24.12536157 -16.3671875 28.625 C-16.09793457 29.55223877 -15.82868164 30.47947754 -15.55126953 31.43481445 C-15.02755538 33.23398478 -14.50004468 35.03205547 -13.96826172 36.82885742 C-13.7260791 37.66263916 -13.48389648 38.4964209 -13.234375 39.35546875 C-13.02006836 40.08403076 -12.80576172 40.81259277 -12.58496094 41.56323242 C-11.84041885 44.66476604 -11.45108433 47.84240968 -11 51 C-10.67 34.83 -10.34 18.66 -10 2 C-6 0 -6 0 0 0 Z " fill="#040404" transform="translate(433,145)"/>
<path d="M0 0 C13.44000905 -0.56788771 26.58817052 0.36359549 39.9375 1.8125 C40.73571167 1.89536255 41.53392334 1.9782251 42.35632324 2.06359863 C44.66505784 2.30629261 46.97117864 2.56612918 49.27734375 2.83203125 C50.31226204 2.94007835 50.31226204 2.94007835 51.36808777 3.05030823 C55.77785081 3.58930306 59.14342831 4.81382392 63 7 C63.25 9.8125 63.25 9.8125 63 13 C54.63656808 21.04406459 37.0806915 21.60737474 26 23 C24.94699707 23.13825195 23.89399414 23.27650391 22.80908203 23.41894531 C-17.67554007 28.52490619 -94.89933432 37.75368235 -131.25952148 14.55859375 C-133 13 -133 13 -133.4375 10.5 C-132.90949526 7.48283006 -132.39763452 6.85590956 -130 5 C-127.07421875 4.0859375 -127.07421875 4.0859375 -123.6875 3.375 C-122.02267578 3.01535156 -122.02267578 3.01535156 -120.32421875 2.6484375 C-114.97233562 1.6044744 -109.97440357 0.87631236 -104.5078125 0.90234375 C-103.30898437 0.90556641 -102.11015625 0.90878906 -100.875 0.91210938 C-99.01875 0.92467773 -99.01875 0.92467773 -97.125 0.9375 C-95.86429688 0.94201172 -94.60359375 0.94652344 -93.3046875 0.95117188 C-90.20307614 0.9629204 -87.10156275 0.97934833 -84 1 C-84 1.33 -84 1.66 -84 2 C-85.13260254 2.15819214 -85.13260254 2.15819214 -86.28808594 2.31958008 C-89.77635348 2.81063393 -93.26314545 3.31151515 -96.75 3.8125 C-98.53083984 4.0609668 -98.53083984 4.0609668 -100.34765625 4.31445312 C-107.19349303 5.30579015 -113.8143725 6.58229918 -120.48535156 8.4206543 C-123 9 -123 9 -127 9 C-127 9.66 -127 10.32 -127 11 C-101.8755435 13.57542536 -77.0090434 14.46331103 -51.76148987 14.32600784 C-48.95634486 14.31228646 -46.15124095 14.30453171 -43.34606934 14.29855347 C-16.31783312 14.23811666 10.6708263 13.82326535 37.671875 12.53515625 C38.4845282 12.4965448 39.2971814 12.45793335 40.13446045 12.41815186 C45.77668741 12.1240031 51.38290997 11.60393812 57 11 C57 10.34 57 9.68 57 9 C55.84886719 8.86335938 54.69773437 8.72671875 53.51171875 8.5859375 C49.99419593 8.14672874 46.50580105 7.59478844 43.01123047 6.99780273 C32.20500726 5.16556835 21.34981535 4.05235261 10.43676758 3.09033203 C9.22786865 2.9767334 8.01896973 2.86313477 6.7734375 2.74609375 C5.14027588 2.60192017 5.14027588 2.60192017 3.47412109 2.45483398 C2.65766113 2.30473877 1.84120117 2.15464355 1 2 C0.67 1.34 0.34 0.68 0 0 Z " fill="#101010" transform="translate(271,383)"/>
<path d="M0 0 C3.5283441 19.31479427 6.79732662 38.66071251 9.8125 58.0625 C9.96502228 59.04012299 10.11754456 60.01774597 10.27468872 61.0249939 C10.71310584 63.84048111 11.14829033 66.6564452 11.58203125 69.47265625 C11.71095764 70.30272186 11.83988403 71.13278748 11.97271729 71.98800659 C12.78626158 77.31466852 13.43539257 82.64108803 14 88 C10.37 88.33 6.74 88.66 3 89 C1.24417159 81.97668635 0.49829977 75.22534669 0 68 C-5.94 68.99 -5.94 68.99 -12 70 C-12.28875 71.918125 -12.5775 73.83625 -12.875 75.8125 C-13.80914569 81.89779192 -14.87032568 87.9481733 -16 94 C-20.95 94.495 -20.95 94.495 -26 95 C-25.27853633 87.10704828 -24.23151077 79.2931368 -23.07421875 71.453125 C-22.88535599 70.16549255 -22.69649323 68.87786011 -22.50190735 67.5512085 C-22.10255211 64.83126547 -21.70140179 62.11159444 -21.29907227 59.39208984 C-20.89397118 56.65257759 -20.491615 53.91268711 -20.09204102 51.17236328 C-17.69334347 34.72339924 -15.12266731 18.32932798 -12 2 C-7.82262526 0.40861915 -4.46839215 -0.21278058 0 0 Z " fill="#0C0C0C" transform="translate(271,176)"/>
<path d="M0 0 C-2.49869928 18.72131509 -5.17035295 37.41658492 -8.109375 56.07421875 C-8.28992432 57.22567383 -8.47047363 58.37712891 -8.65649414 59.56347656 C-8.99809589 61.73402196 -9.34334078 63.90399879 -9.69311523 66.07324219 C-10.6530515 72.17142857 -11.32778471 78.22367085 -11.74121094 84.3840332 C-12.07827622 87.7912544 -12.89765902 90.76646646 -14 94 C-19.445 94.495 -19.445 94.495 -25 95 C-28.23964446 75.91289984 -31.39252379 56.81217425 -34.40206909 37.68734741 C-34.71623507 35.69456161 -35.03224176 33.70206509 -35.35012817 31.70986938 C-35.79869276 28.89463525 -36.24013075 26.07837157 -36.6796875 23.26171875 C-36.81377518 22.42768524 -36.94786285 21.59365173 -37.08601379 20.73434448 C-37.80085539 16.09363105 -38.13264574 11.69558083 -38 7 C-34.32238669 5.82316374 -30.83330292 5.96421654 -27 6 C-26.32433728 10.31922221 -25.64889264 14.63847846 -24.97363281 18.95776367 C-24.74484869 20.42098873 -24.51600939 21.88420517 -24.28710938 23.34741211 C-23.73448606 26.88008087 -23.18284627 30.41289599 -22.63330078 33.94604492 C-22.22648518 36.55928579 -21.81240156 39.17101639 -21.39404297 41.7824707 C-21.21244629 42.92675537 -21.03084961 44.07104004 -20.84375 45.25 C-20.68326172 46.24902344 -20.52277344 47.24804688 -20.35742188 48.27734375 C-19.88206906 51.8983373 -19.85703991 55.35451768 -20 59 C-19.34 59 -18.68 59 -18 59 C-18.02320313 58.27296875 -18.04640625 57.5459375 -18.0703125 56.796875 C-18.08835938 55.79140625 -18.10640625 54.7859375 -18.125 53.75 C-18.14820313 52.77546875 -18.17140625 51.8009375 -18.1953125 50.796875 C-17.97996473 46.61051428 -17.29800513 42.64270164 -16.57470703 38.51855469 C-15.44901981 31.6267092 -14.69366941 24.68381328 -13.875 17.75 C-13.69166023 16.2148134 -13.50806809 14.67965691 -13.32421875 13.14453125 C-12.87990989 9.4300293 -12.43899165 5.71513457 -12 2 C-10.7625 1.67 -9.525 1.34 -8.25 1 C-7.55390625 0.814375 -6.8578125 0.62875 -6.140625 0.4375 C-4 0 -4 0 0 0 Z " fill="#0B0B0B" transform="translate(244,181)"/>
<path d="M0 0 C2.475 0.495 2.475 0.495 5 1 C5 5.95 5 10.9 5 16 C5.99 14.68 6.98 13.36 8 12 C10.5 11.5 10.5 11.5 13 12 C14.8125 13.4375 14.8125 13.4375 16 16 C16.69551248 24.34614974 15.13545822 32.73751384 14 41 C19.4902794 36.25839506 19.52168018 29.75032129 20.12304688 22.97070312 C20.70851335 17.40613438 21.98830883 13.01169117 26 9 C28.05859375 8.6640625 28.05859375 8.6640625 30.4375 8.625 C31.21996094 8.59664062 32.00242187 8.56828125 32.80859375 8.5390625 C35 9 35 9 36.7890625 10.71875 C38.93300184 14.75765508 38.01563585 18.67843537 37 23 C34.95824081 26.81128383 33.58980363 28.60679758 30 31 C29.01 31 28.02 31 27 31 C27.66 32.65 28.32 34.3 29 36 C31.33071879 36.41870553 31.33071879 36.41870553 34 36 C37.22175062 32.77824938 39.089998 29.1065043 41 25 C42.3484585 28.06467841 41.91740262 29.2434449 40.8125 32.5 C38.75443066 36.47420286 36.76828586 38.71951714 33.1875 41.3125 C29.83232926 42.36698223 27.37032832 41.85790175 24 41 C22.0625 38.9375 22.0625 38.9375 21 37 C20.0409375 38.4540625 20.0409375 38.4540625 19.0625 39.9375 C17 43 17 43 16 44 C13.33326134 44.28070933 11.63715043 44.39266248 9.3203125 42.96484375 C7.26128849 39.90067489 7.90690024 36.82776775 8.25 33.3125 C8.30792725 32.59513672 8.36585449 31.87777344 8.42553711 31.13867188 C8.82124804 26.40946989 9.3151043 21.69642766 10 17 C9.01 17 8.02 17 7 17 C3.85918897 26.50618805 2.92668414 36.08993079 2 46 C0.35 45.67 -1.3 45.34 -3 45 C-3.02944154 40.89584883 -3.04694527 36.79172544 -3.0625 32.6875 C-3.07087891 31.53958984 -3.07925781 30.39167969 -3.08789062 29.20898438 C-3.10808977 22.07868651 -2.79718119 15.08655428 -2 8 C-6.455 8.495 -6.455 8.495 -11 9 C-10.98839844 9.72058594 -10.97679687 10.44117187 -10.96484375 11.18359375 C-10.86159723 23.46993018 -11.45652184 35.72837867 -12 48 C-13.65614657 48.38218767 -15.32457024 48.71395102 -17 49 C-18.61981493 47.38018507 -18.12991144 45.59896024 -18.1328125 43.36328125 C-18.13482666 42.3993042 -18.13684082 41.43532715 -18.13891602 40.44213867 C-18.13432373 39.40935791 -18.12973145 38.37657715 -18.125 37.3125 C-18.12234131 36.27134033 -18.11968262 35.23018066 -18.11694336 34.1574707 C-17.98722798 12.97445595 -17.98722798 12.97445595 -16 9 C-17.258125 9.33 -18.51625 9.66 -19.8125 10 C-22.38987302 10.67603227 -24.30212925 11 -27 11 C-26.75 8.625 -26.75 8.625 -26 6 C-22.77389498 3.85945638 -19.40673836 3.43036018 -15.625 2.875 C-14.52414063 2.70742187 -13.42328125 2.53984375 -12.2890625 2.3671875 C-4.09514563 1.45242718 -4.09514563 1.45242718 -1 3 C-0.67 2.01 -0.34 1.02 0 0 Z " fill="#0D0D0D" transform="translate(227,111)"/>
<path d="M0 0 C0 3.63 0 7.26 0 11 C-4.26616316 12.13764351 -7.56486311 13 -12 13 C-12 39.07 -12 65.14 -12 92 C-17.445 92.99 -17.445 92.99 -23 94 C-23 68.26 -23 42.52 -23 16 C-26.63 16.33 -30.26 16.66 -34 17 C-34 13.37 -34 9.74 -34 6 C-27.42385568 4.2950737 -20.83984996 2.69238888 -14.1875 1.3125 C-12.98480469 1.06113281 -11.78210938 0.80976563 -10.54296875 0.55078125 C-6.96846606 -0.00490219 -3.6111275 -0.09709818 0 0 Z " fill="#0A0A0A" transform="translate(320,167)"/>
<path d="M0 0 C1.99954746 -0.04254356 4.00041636 -0.04080783 6 0 C7.71632641 1.71632641 7.17244276 3.90107012 7.1875 6.25 C7.13370838 15.87870003 6.01176462 25.43340414 5 35 C9.455 34.505 9.455 34.505 14 34 C14 34.99 14 35.98 14 37 C11.03 37.99 8.06 38.98 5 40 C4.67 47.59 4.34 55.18 4 63 C2.02 63 0.04 63 -2 63 C-3 62 -3 62 -3.11352539 59.95874023 C-3.10828857 59.08419189 -3.10305176 58.20964355 -3.09765625 57.30859375 C-3.09443359 56.36435547 -3.09121094 55.42011719 -3.08789062 54.44726562 C-3.07532227 52.95743164 -3.07532227 52.95743164 -3.0625 51.4375 C-3.05798828 50.44041016 -3.05347656 49.44332031 -3.04882812 48.41601562 C-3.03700007 45.94395151 -3.02051849 43.47200482 -3 41 C-4.8871875 41.495 -4.8871875 41.495 -6.8125 42 C-9.38987302 42.67603227 -11.30212925 43 -14 43 C-14 50.59 -14 58.18 -14 66 C-16.31 66 -18.62 66 -21 66 C-21.15855469 65.13117188 -21.31710937 64.26234375 -21.48046875 63.3671875 C-23.17323511 54.01187937 -23.17323511 54.01187937 -29 47 C-32.01419386 46.26038268 -34.90169171 46.01350025 -38 46 C-37.67 44.35 -37.34 42.7 -37 41 C-31.72 41 -26.44 41 -21 41 C-21.02320313 39.40671875 -21.04640625 37.8134375 -21.0703125 36.171875 C-21.31547911 12.23229893 -21.31547911 12.23229893 -19 5 C-18.34 4.34 -17.68 3.68 -17 3 C-13.875 3.375 -13.875 3.375 -11 4 C-10.97306425 6.12493141 -10.95363372 8.24995912 -10.9375 10.375 C-10.92589844 11.55835938 -10.91429687 12.74171875 -10.90234375 13.9609375 C-11 17 -11 17 -12 19 C-12.15123831 20.5195764 -12.24881693 22.04472502 -12.31640625 23.5703125 C-12.35830078 24.46621094 -12.40019531 25.36210937 -12.44335938 26.28515625 C-12.48267578 27.22230469 -12.52199219 28.15945313 -12.5625 29.125 C-12.60568359 30.06988281 -12.64886719 31.01476562 -12.69335938 31.98828125 C-12.7995894 34.32534172 -12.90031271 36.6626513 -13 39 C-10.03 38.34 -7.06 37.68 -4 37 C-3.9498877 36.09233887 -3.89977539 35.18467773 -3.84814453 34.24951172 C-3.65712021 30.86088749 -3.45870552 27.47286024 -3.25537109 24.08496094 C-3.16910079 22.62256613 -3.08572296 21.15999756 -3.00537109 19.69726562 C-2.88891664 17.58670839 -2.76184485 15.4770087 -2.6328125 13.3671875 C-2.55949707 12.09987793 -2.48618164 10.83256836 -2.41064453 9.52685547 C-2.01135674 6.09753835 -1.2178673 3.22019718 0 0 Z " fill="#070707" transform="translate(314,285)"/>
<path d="M0 0 C2.5 0.125 2.5 0.125 3.5 1.125 C3.59997642 3.61558914 3.63879627 6.07227395 3.625 8.5625 C3.62886719 9.25666016 3.63273437 9.95082031 3.63671875 10.66601562 C3.62663994 15.87172012 3.62663994 15.87172012 2.5 18.125 C3.37011719 17.92970703 3.37011719 17.92970703 4.2578125 17.73046875 C10.45467217 16.63630376 10.45467217 16.63630376 13.36328125 17.99609375 C16.67881354 20.63700161 18.31055802 23.13687099 19.5 27.125 C20.77299628 38.84959308 20.39553013 50.13620358 12.875 59.6875 C9.76971817 62.87449977 9.133472 63.06369626 4.625 63.5 C1.37118263 63.44105403 0.72746018 63.31654542 -1.875 61.125 C-5.56951953 54.30434856 -5.79951751 47.474861 -5.765625 39.89453125 C-5.76753845 38.94108322 -5.7694519 37.98763519 -5.77142334 37.0052948 C-5.77277697 35.00263198 -5.76913835 32.99996013 -5.76074219 30.99731445 C-5.7499953 27.93616079 -5.76068379 24.87558918 -5.7734375 21.81445312 C-5.77211645 19.86197788 -5.7695552 17.90950299 -5.765625 15.95703125 C-5.76967346 15.04548782 -5.77372192 14.1339444 -5.77789307 13.19477844 C-5.68266488 0.28413324 -5.68266488 0.28413324 0 0 Z " fill="#0D0D0D" transform="translate(371.5,273.875)"/>
<path d="M0 0 C0 29.7 0 59.4 0 90 C-5.445 90.99 -5.445 90.99 -11 92 C-11 61.97 -11 31.94 -11 1 C-8 0 -8 0 0 0 Z " fill="#060606" transform="translate(341,163)"/>
<path d="M0 0 C0 29.7 0 59.4 0 90 C-5.445 90.495 -5.445 90.495 -11 91 C-11 61.3 -11 31.6 -11 1 C-6 0 -6 0 0 0 Z " fill="#D8222E" transform="translate(56,218)"/>
<path d="M0 0 C-0.33 12.87 -0.66 25.74 -1 39 C2.23655184 35.76344816 3.13244169 33.55738891 4.6875 29.3125 C5.12449219 28.13300781 5.56148438 26.95351563 6.01171875 25.73828125 C6.33785156 24.83464844 6.66398437 23.93101562 7 23 C7.66 23 8.32 23 9 23 C8.43595666 30.75559589 6.44815863 36.92410839 1.5625 43.0625 C-1 45 -1 45 -3.625 45.5 C-6.34555656 44.92725125 -7.29669958 44.15153737 -9 42 C-9.86625 42.825 -10.7325 43.65 -11.625 44.5 C-13.98053963 46.43887578 -15.03832825 47.00843222 -18.125 47.6875 C-21 47 -21 47 -23.15087891 44.49511719 C-25.42821568 40.19060791 -25.54985749 37.16787802 -25.4609375 32.390625 C-25.46002106 31.58260437 -25.45910461 30.77458374 -25.4581604 29.94207764 C-25.45214626 28.24436523 -25.43646631 26.54666234 -25.41162109 24.84912109 C-25.37491647 22.24407162 -25.37060339 19.64043835 -25.37109375 17.03515625 C-25.36126902 15.38280015 -25.34961483 13.7304537 -25.3359375 12.078125 C-25.33371185 11.29794006 -25.33148621 10.51775513 -25.32919312 9.71392822 C-25.23221568 4.23221568 -25.23221568 4.23221568 -23 2 C-20.4375 1.8125 -20.4375 1.8125 -18 2 C-15.96876925 4.03123075 -16.74330382 8.17768866 -16.68359375 10.97265625 C-16.66281265 11.77029892 -16.64203156 12.56794159 -16.62062073 13.38975525 C-16.55503842 15.94724611 -16.49620033 18.5048428 -16.4375 21.0625 C-16.39432301 22.79232882 -16.35070899 24.52214679 -16.30664062 26.25195312 C-16.19934828 30.5011926 -16.09810574 34.7505389 -16 39 C-15.01 39 -14.02 39 -13 39 C-9.78281785 29.36936032 -9.54709175 20.31170526 -9.47265625 10.23632812 C-9.45074219 9.07423828 -9.42882812 7.91214844 -9.40625 6.71484375 C-9.39916016 5.66417725 -9.39207031 4.61351074 -9.38476562 3.53100586 C-9.25779297 2.69577393 -9.13082031 1.86054199 -9 1 C-6 -1 -6 -1 0 0 Z " fill="#101010" transform="translate(355,297)"/>
<path d="M0 0 C0.66 5.28 1.32 10.56 2 16 C2.66 16 3.32 16 4 16 C4.20622632 21.79725111 4.13922723 26.51823023 2 32 C2 32.99 2 33.98 2 35 C1.01 35 0.02 35 -1 35 C-1 51.83 -1 68.66 -1 86 C-3.64 86 -6.28 86 -9 86 C-9 57.62 -9 29.24 -9 0 C-5 -1 -5 -1 0 0 Z " fill="#EA1C24" transform="translate(79,216)"/>
<path d="M0 0 C0.33 0 0.66 0 1 0 C0.99333817 1.75979691 0.99333817 1.75979691 0.98654175 3.55514526 C0.94606292 14.59161938 0.91604801 25.62807851 0.89637566 36.66460991 C0.88592205 42.33910075 0.87173417 48.01353184 0.84912109 53.68798828 C0.82744884 59.16037715 0.81544326 64.63270841 0.81024551 70.10513687 C0.80653963 72.19680819 0.79930337 74.28847623 0.78853989 76.38012314 C0.77409959 79.30149999 0.77201892 82.22263639 0.77294922 85.14404297 C0.76575867 86.01582184 0.75856812 86.88760071 0.75115967 87.78579712 C0.55460243 92.37075787 0.55460243 92.37075787 3 96 C3 96.99 3 97.98 3 99 C-23.47572816 105 -23.47572816 105 -30 105 C-30 104.34 -30 103.68 -30 103 C-31.45833358 101.37485532 -31.45833358 101.37485532 -33 100 C-32.4375 98.0625 -32.4375 98.0625 -31 96 C-27.535 95.505 -27.535 95.505 -24 95 C-24 78.5 -24 62 -24 45 C-21.22041543 47.77958457 -20.72556559 50.98638108 -19.75 54.6875 C-19.53964111 55.46681885 -19.32928223 56.2461377 -19.11254883 57.04907227 C-18.40094672 59.69745392 -17.70059871 62.34868759 -17 65 C-16.44668766 67.06772789 -15.89329997 69.13543562 -15.33984375 71.203125 C-14.78823599 73.28103077 -14.2374434 75.35915312 -13.6875 77.4375 C-13.42098633 78.4380542 -13.15447266 79.4386084 -12.87988281 80.46948242 C-12.63463867 81.40638916 -12.38939453 82.3432959 -12.13671875 83.30859375 C-11.80740356 84.55854126 -11.80740356 84.55854126 -11.47143555 85.83374023 C-11 88 -11 88 -11 91 C-9.515 90.505 -9.515 90.505 -8 90 C-5.36 90 -2.72 90 0 90 C0 60.3 0 30.6 0 0 Z " fill="#FAEAEB" transform="translate(103,209)"/>
<path d="M0 0 C7.22655607 0.55941728 14.45102405 1.14120511 21.67480469 1.73535156 C24.56619587 1.96547403 27.45768678 2.17161056 30.3515625 2.3671875 C77.4492346 5.82110889 77.4492346 5.82110889 92.9375 18.875 C95.14379039 22.21786422 95.9164453 24.04147092 95.5703125 27.984375 C94.19928401 32.82992776 90.93161309 35.78642109 86.76171875 38.40625 C81.54922697 41.13303996 76.09378442 43.17867158 70.54296875 45.10546875 C68.0044489 45.96191377 68.0044489 45.96191377 65.6328125 47.04296875 C62.33860468 48.24041818 59.16002919 48.67065039 55.6875 49.125 C53.80611328 49.37636719 53.80611328 49.37636719 51.88671875 49.6328125 C50.93410156 49.75398438 49.98148437 49.87515625 49 50 C49 49.34 49 48.68 49 48 C48.34 47.34 47.68 46.68 47 46 C46 45 45 44 44 43 C46.96386939 40.03613061 50.50117149 40.25403417 54.5 39.75 C61.49398637 38.75813044 68.1097714 37.30141311 74.8125 35.0625 C75.54597656 34.82176758 76.27945313 34.58103516 77.03515625 34.33300781 C81.53234015 32.76523954 85.14683716 30.80065054 89 28 C88.95571019 25.60405962 88.95571019 25.60405962 88 23 C66.21340599 7.18935262 33.79619923 5.54587214 8.00415039 3.32543945 C5.28423685 3.03079136 2.67039893 2.58615489 0 2 C0 1.34 0 0.68 0 0 Z " fill="#0F0F0F" transform="translate(279,371)"/>
<path d="M0 0 C0 21.78 0 43.56 0 66 C-6 68 -6 68 -10 68 C-10.06942626 59.42924152 -10.12277341 50.85859999 -10.15543652 42.28763008 C-10.17111101 38.30802626 -10.19238138 34.32861441 -10.22631836 30.34912109 C-10.25884887 26.51065044 -10.27683957 22.67236476 -10.28463173 18.83376694 C-10.29018666 17.36727866 -10.30103379 15.90080082 -10.31719017 14.43439102 C-10.33888161 12.38458409 -10.34197055 10.33554725 -10.34057617 8.28564453 C-10.34723801 7.11760284 -10.35389984 5.94956116 -10.36076355 4.74612427 C-10.24171158 3.83990326 -10.12265961 2.93368225 -10 2 C-7 0 -7 0 0 0 Z " fill="#F5F5F5" transform="translate(375,168)"/>
<path d="M0 0 C2.97 0 5.94 0 9 0 C9.02314265 8.44040261 9.04092492 16.88079202 9.05181217 25.32121849 C9.05703678 29.2401987 9.0641268 33.15915726 9.07543945 37.078125 C9.08628329 40.85822386 9.09228002 44.63830186 9.09487724 48.41841507 C9.09672878 49.86254836 9.10034424 51.30668047 9.10573006 52.7508049 C9.1129602 54.76924277 9.11340823 56.78770153 9.11352539 58.80615234 C9.115746 59.95642914 9.11796661 61.10670593 9.12025452 62.2918396 C9 65 9 65 8 67 C5.03 67 2.06 67 -1 67 C-1.02314265 58.55959739 -1.04092492 50.11920798 -1.05181217 41.67878151 C-1.05703678 37.7598013 -1.0641268 33.84084274 -1.07543945 29.921875 C-1.08628329 26.14177614 -1.09228002 22.36169814 -1.09487724 18.58158493 C-1.09672878 17.13745164 -1.10034424 15.69331953 -1.10573006 14.2491951 C-1.1129602 12.23075723 -1.11340823 10.21229847 -1.11352539 8.19384766 C-1.115746 7.04357086 -1.11796661 5.89329407 -1.12025452 4.7081604 C-1 2 -1 2 0 0 Z " fill="#F4F4F4" transform="translate(176,205)"/>
<path d="M0 0 C1.99954746 -0.04254356 4.00041636 -0.04080783 6 0 C7.71632641 1.71632641 7.17244276 3.90107012 7.1875 6.25 C7.13370838 15.87870003 6.01176462 25.43340414 5 35 C9.455 34.505 9.455 34.505 14 34 C14 34.99 14 35.98 14 37 C11.03 37.99 8.06 38.98 5 40 C4.67 47.59 4.34 55.18 4 63 C2.02 63 0.04 63 -2 63 C-3 62 -3 62 -3.11352539 59.95874023 C-3.10828857 59.08419189 -3.10305176 58.20964355 -3.09765625 57.30859375 C-3.09443359 56.36435547 -3.09121094 55.42011719 -3.08789062 54.44726562 C-3.07951172 53.45404297 -3.07113281 52.46082031 -3.0625 51.4375 C-3.05798828 50.44041016 -3.05347656 49.44332031 -3.04882812 48.41601562 C-3.03700007 45.94395151 -3.02051849 43.47200482 -3 41 C-3.598125 41.20625 -4.19625 41.4125 -4.8125 41.625 C-7 42 -7 42 -10 40 C-7.8614515 37.8614515 -6.86724686 37.57344937 -4 37 C-3.9498877 36.09233887 -3.89977539 35.18467773 -3.84814453 34.24951172 C-3.65712021 30.86088749 -3.45870552 27.47286024 -3.25537109 24.08496094 C-3.16910079 22.62256613 -3.08572296 21.15999756 -3.00537109 19.69726562 C-2.88891664 17.58670839 -2.76184485 15.4770087 -2.6328125 13.3671875 C-2.55949707 12.09987793 -2.48618164 10.83256836 -2.41064453 9.52685547 C-2.01135674 6.09753835 -1.2178673 3.22019718 0 0 Z " fill="#0A0A0A" transform="translate(314,285)"/>
<path d="M0 0 C2 2 2 2 2.24050903 4.97390747 C2.2338472 6.88585403 2.2338472 6.88585403 2.22705078 8.83642578 C2.22734283 9.53897491 2.22763489 10.24152405 2.22793579 10.96536255 C2.22654023 13.29213731 2.21096872 15.61859354 2.1953125 17.9453125 C2.19158317 19.55671005 2.18873582 21.16810987 2.18673706 22.7795105 C2.17909431 27.02433514 2.15944039 31.2690233 2.1373291 35.51379395 C2.11688443 39.8438126 2.1077383 44.17385326 2.09765625 48.50390625 C2.07619504 57.00266686 2.04205145 65.50131646 2 74 C1.67 74 1.34 74 1 74 C0.67 63.44 0.34 52.88 0 42 C0 42.33 0 42.66 0 43 C0 56.33333333 0 69.66666667 0 83 C-0.99 83 -1.98 83 -3 83 C-3.33 80.69 -3.66 78.38 -4 76 C-4.66 76 -5.32 76 -6 76 C-7.290644 73.41871199 -7.22038021 71.32005465 -7.375 68.4375 C-7.73222349 63.73777846 -8.52227974 59.8322407 -10.171875 55.44140625 C-11.59026798 51.25982318 -12.42324926 46.93716472 -13.3515625 42.625 C-13.73786688 40.08983401 -13.73786688 40.08983401 -15 39 C-15.04080783 37.00041636 -15.04254356 34.99954746 -15 33 C-14.01 32.505 -14.01 32.505 -13 32 C-13 32.66 -13 33.32 -13 34 C-12.34 34 -11.68 34 -11 34 C-10.70996094 35.24716797 -10.70996094 35.24716797 -10.4140625 36.51953125 C-10.15367188 37.60621094 -9.89328125 38.69289062 -9.625 39.8125 C-9.36976562 40.89144531 -9.11453125 41.97039062 -8.8515625 43.08203125 C-8.11267119 46.15533343 -8.11267119 46.15533343 -6 49 C-5.01 48.505 -5.01 48.505 -4 48 C-3.01 24.735 -3.01 24.735 -2 1 C-1.34 0.67 -0.68 0.34 0 0 Z " fill="#EA1C22" transform="translate(97,214)"/>
<path d="M0 0 C0.78246094 -0.02835937 1.56492187 -0.05671875 2.37109375 -0.0859375 C4.5625 0.375 4.5625 0.375 6.3515625 2.09375 C8.49550184 6.13265508 7.57813585 10.05343537 6.5625 14.375 C4.52074081 18.18628383 3.15230363 19.98179758 -0.4375 22.375 C-1.4275 22.375 -2.4175 22.375 -3.4375 22.375 C-2.7775 24.025 -2.1175 25.675 -1.4375 27.375 C0.89321879 27.79370553 0.89321879 27.79370553 3.5625 27.375 C6.78425062 24.15324938 8.652498 20.4815043 10.5625 16.375 C11.9109585 19.43967841 11.47990262 20.6184449 10.375 23.875 C8.31693066 27.84920286 6.33078586 30.09451714 2.75 32.6875 C-0.60517074 33.74198223 -3.06717168 33.23290175 -6.4375 32.375 C-8.375 30.3125 -8.375 30.3125 -9.4375 28.375 C-10.4275 29.695 -11.4175 31.015 -12.4375 32.375 C-13.4375 29.375 -13.4375 29.375 -12.55859375 27.18359375 C-10.90409127 23.03869033 -10.70542699 18.75341904 -10.31445312 14.34570312 C-9.58608335 7.42290936 -7.91420557 0.12995411 0 0 Z " fill="#181818" transform="translate(257.4375,119.625)"/>
<path d="M0 0 C0.96237484 3.79065235 1.91914452 7.58269894 2.875 11.375 C3.14441406 12.43589844 3.41382812 13.49679688 3.69140625 14.58984375 C5.31136687 21.03017498 6.7735542 27.47296878 8 34 C5.12998946 31.1928938 3.12788417 29.14927906 2.87890625 24.96484375 C2.87539886 22.97615591 2.9337471 20.98758702 3 19 C2.34 19 1.68 19 1 19 C-0.43336231 13.64878069 -1.40984815 8.50808397 -2 3 C-4.64 3 -7.28 3 -10 3 C-10 31.38 -10 59.76 -10 89 C-7.36 89 -4.72 89 -2 89 C-2 72.17 -2 55.34 -2 38 C-1.34 38 -0.68 38 0 38 C2.72980027 41.75347537 3.78993082 45.56307968 5 50 C5.6549268 51.33913894 6.32214426 52.67232014 7 54 C9.57591104 60.11316688 10.4346213 65.88829716 10.7890625 72.49609375 C10.8439936 74.99678009 10.8439936 74.99678009 12 77 C12.04022391 79.3329866 12.04320247 81.66706666 12 84 C9.80927286 80.71390929 9.02287301 77.69131317 8.125 73.91796875 C7.95500488 73.2261702 7.78500977 72.53437164 7.60986328 71.8216095 C7.06764065 69.61156369 6.53337266 67.3996968 6 65.1875 C5.46544699 62.98632841 4.92916302 60.78560603 4.39013672 58.58552551 C4.05555652 57.21829564 3.72369312 55.85039702 3.39501953 54.48173523 C2.43852634 50.55429816 1.28469151 46.85407454 0 43 C-0.33 58.84 -0.66 74.68 -1 91 C-8 93 -8 93 -12 93 C-12 62.97 -12 32.94 -12 2 C-4 0 -4 0 0 0 Z " fill="#CC555D" transform="translate(80,213)"/>
<path d="M0 0 C1.32 0 2.64 0 4 0 C4 28.05 4 56.1 4 85 C2.02 85 0.04 85 -2 85 C-2.0270043 83.54176788 -2.04639787 82.08339325 -2.0625 80.625 C-2.07410156 79.81289063 -2.08570313 79.00078125 -2.09765625 78.1640625 C-2 76 -2 76 -1 74 C-0.9130106 71.69729474 -0.89298472 69.39197525 -0.90234375 67.08764648 C-0.90380402 66.37695007 -0.90526428 65.66625366 -0.9067688 64.934021 C-0.91057767 63.38927455 -0.91669725 61.84453249 -0.92483521 60.29980278 C-0.93756411 57.85880028 -0.94410526 55.4178519 -0.94897461 52.9768219 C-0.96041952 47.79702369 -0.97966842 42.61726996 -1 37.4375 C-1.0235484 31.43376552 -1.04395321 25.43005636 -1.05593872 19.4262867 C-1.06244943 17.01482402 -1.07495674 14.60343831 -1.08764648 12.19200134 C-1.09127706 10.72232125 -1.09462904 9.25264044 -1.09765625 7.78295898 C-1.10289307 6.49437485 -1.10812988 5.20579071 -1.11352539 3.87815857 C-1 1 -1 1 0 0 Z " fill="#EB1A26" transform="translate(49,221)"/>
<path d="M0 0 C0.99 0 1.98 0 3 0 C2.9592334 0.71655762 2.9184668 1.43311523 2.87646484 2.17138672 C2.698516 5.4054364 2.5365618 8.64009207 2.375 11.875 C2.31054688 13.00292969 2.24609375 14.13085938 2.1796875 15.29296875 C2.128125 16.36933594 2.0765625 17.44570312 2.0234375 18.5546875 C1.97106934 19.54968262 1.91870117 20.54467773 1.86474609 21.56982422 C1.73935376 24.18383391 1.73935376 24.18383391 4 26 C6.36891496 26.75191978 6.36891496 26.75191978 9 26 C10.97303603 23.8500341 12.50230986 21.49827461 14 19 C15.5 20.375 15.5 20.375 17 22 C17 22.66 17 23.32 17 24 C21.82360189 24.19294408 25.49646738 23.75747614 30 22 C30 22.66 30 23.32 30 24 C29.01 24.495 29.01 24.495 28 25 C29.32 25.66 30.64 26.32 32 27 C4.08862034 33.19335347 4.08862034 33.19335347 -4 33 C-4.66 32.34 -5.32 31.68 -6 31 C-5.34 30.67 -4.68 30.34 -4 30 C-4.33 29.67 -4.66 29.34 -5 29 C-5.49468506 19.10629881 -4.55680787 8.90648812 0 0 Z " fill="#E9E9E9" transform="translate(234,128)"/>
<path d="M0 0 C1.8918457 0.28735352 1.8918457 0.28735352 4 1 C7.14767853 7.18877652 7.43475082 12.71156384 7.3125 19.5625 C7.31572266 20.46935547 7.31894531 21.37621094 7.32226562 22.31054688 C7.28020712 27.58315338 6.7176124 32.01139665 5 37 C0.25 36.25 0.25 36.25 -2 34 C-3.86892884 28.64657704 -3.22575101 22.58939221 -3.25 17 C-3.270625 15.81148438 -3.29125 14.62296875 -3.3125 13.3984375 C-3.31765625 12.25632812 -3.3228125 11.11421875 -3.328125 9.9375 C-3.3374707 8.89464844 -3.34681641 7.85179687 -3.35644531 6.77734375 C-2.95585634 3.65604226 -2.09016587 2.30125193 0 0 Z " fill="#F9F9F9" transform="translate(376,295)"/>
<path d="M0 0 C0.33 0.66 0.66 1.32 1 2 C1.69867188 1.84402344 2.39734375 1.68804687 3.1171875 1.52734375 C4.48230469 1.23537109 4.48230469 1.23537109 5.875 0.9375 C6.77992188 0.74027344 7.68484375 0.54304688 8.6171875 0.33984375 C11 0 11 0 13 1 C14.7407433 5.93002378 14.22495954 11.40729612 14.25 16.5625 C14.270625 17.59697266 14.29125 18.63144531 14.3125 19.69726562 C14.3486516 26.91402781 13.25321754 33.14773776 11 40 C9.0625 40.5625 9.0625 40.5625 7 41 C4.96876925 38.96876925 5.74330382 34.82231134 5.68359375 32.02734375 C5.6524221 30.83087975 5.6524221 30.83087975 5.62062073 29.61024475 C5.55503842 27.05275389 5.49620033 24.4951572 5.4375 21.9375 C5.39432301 20.20767118 5.35070899 18.47785321 5.30664062 16.74804688 C5.19934828 12.4988074 5.09810574 8.2494611 5 4 C1.37114676 3.84850702 1.37114676 3.84850702 -2 5 C-1.125 1.125 -1.125 1.125 0 0 Z " fill="#EDEDED" transform="translate(332,296)"/>
<path d="M0 0 C2.4375 0.1875 2.4375 0.1875 3.4375 1.1875 C3.52608646 3.92644085 3.55273479 6.6400327 3.53515625 9.37890625 C3.5337413 10.19874496 3.53232635 11.01858368 3.53086853 11.86326599 C3.52525289 14.49221382 3.51269779 17.12107773 3.5 19.75 C3.49498701 21.52799357 3.49042376 23.30598846 3.48632812 25.08398438 C3.47527839 29.45185545 3.45800331 33.81966348 3.4375 38.1875 C1.4375 39.1875 1.4375 39.1875 -1.5625 39.1875 C-2.2225 38.8575 -2.8825 38.5275 -3.5625 38.1875 C-4.21808651 29.0444096 -4.6796191 19.91799153 -4.75 10.75 C-4.76289063 9.92781982 -4.77578125 9.10563965 -4.7890625 8.25854492 C-4.79247641 6.23345749 -4.68659551 4.20878451 -4.5625 2.1875 C-2.5625 0.1875 -2.5625 0.1875 0 0 Z " fill="#090909" transform="translate(334.5625,298.8125)"/>
<path d="M0 0 C0.66 0 1.32 0 2 0 C2.99 3.63 3.98 7.26 5 11 C4.67 11.33 4.34 11.66 4 12 C3.90487056 14.67787973 3.87444721 17.32988869 3.88647461 20.00805664 C3.88632858 20.84700974 3.88618256 21.68596283 3.8860321 22.55033875 C3.8867315 25.33697044 3.89452515 28.12353616 3.90234375 30.91015625 C3.90420783 32.83686791 3.90563178 34.76358005 3.90663147 36.69029236 C3.91045741 41.77187397 3.92028834 46.8534272 3.93133545 51.93499756 C3.94154794 57.11616634 3.94612874 62.29733969 3.95117188 67.47851562 C3.96191054 77.65235625 3.97898787 87.82617577 4 98 C0.20957649 99.31820986 -2.84927538 100.24699166 -6.875 100.125 C-7.65617187 100.10695313 -8.43734375 100.08890625 -9.2421875 100.0703125 C-9.82226562 100.04710937 -10.40234375 100.02390625 -11 100 C-11 98.68 -11 97.36 -11 96 C-11.66 95.67 -12.32 95.34 -13 95 C-12.01 94.01 -12.01 94.01 -11 93 C-10.78241171 90.26101058 -10.68858368 87.62011167 -10.68115234 84.87841797 C-10.67110672 84.03931885 -10.6610611 83.20021973 -10.65071106 82.33569336 C-10.61975214 79.55453189 -10.6028088 76.77346722 -10.5859375 73.9921875 C-10.56723606 72.06689615 -10.54766343 70.14161309 -10.5272522 68.21633911 C-10.47581677 63.14305494 -10.43625226 58.06974415 -10.39910889 52.99633789 C-10.3591406 47.82170977 -10.30801562 42.64719341 -10.2578125 37.47265625 C-10.16091818 27.31518255 -10.07655679 17.15764591 -10 7 C-9.43990234 6.80881592 -8.87980469 6.61763184 -8.30273438 6.4206543 C-7.57376953 6.16195557 -6.84480469 5.90325684 -6.09375 5.63671875 C-5.00610352 5.25713013 -5.00610352 5.25713013 -3.89648438 4.86987305 C-1.79484609 4.10249228 -1.79484609 4.10249228 -0.5 1.8125 C-0.335 1.214375 -0.17 0.61625 0 0 Z M-9 7 C-9 36.7 -9 66.4 -9 97 C-3.555 96.505 -3.555 96.505 2 96 C2 66.3 2 36.6 2 6 C-3.86925591 5.80388386 -3.86925591 5.80388386 -9 7 Z " fill="#FEF2F1" transform="translate(54,212)"/>
<path d="M0 0 C0 0.66 0 1.32 0 2 C-1.16849487 2.10489746 -1.16849487 2.10489746 -2.3605957 2.21191406 C-27.14177416 4.48216857 -51.61022349 7.34022862 -74 19 C-74.66 18.01 -75.32 17.02 -76 16 C-76.99 16 -77.98 16 -79 16 C-58.01886456 1.01347469 -25.09155766 -0.66614755 0 0 Z " fill="#171717" transform="translate(181,373)"/>
<path d="M0 0 C2.77958457 2.77958457 3.27443441 5.98638108 4.25 9.6875 C4.46035889 10.46681885 4.67071777 11.2461377 4.88745117 12.04907227 C5.59905328 14.69745392 6.29940129 17.34868759 7 20 C7.55331234 22.06772789 8.10670003 24.13543562 8.66015625 26.203125 C9.21176401 28.28103077 9.7625566 30.35915312 10.3125 32.4375 C10.57901367 33.4380542 10.84552734 34.4386084 11.12011719 35.46948242 C11.36536133 36.40638916 11.61060547 37.3432959 11.86328125 38.30859375 C12.19259644 39.55854126 12.19259644 39.55854126 12.52856445 40.83374023 C13 43 13 43 13 46 C15.64 45.67 18.28 45.34 21 45 C17.86501708 46.85776765 15.62528568 47.20140476 12 47 C9.79463821 42.9728176 8.54339792 39.56454251 8 35 C6.05396726 34.40929986 6.05396726 34.40929986 4 34 C1.68187616 36.31812384 2.53922272 41.95564046 2.37890625 45.09375 C2.25386719 46.0528125 2.12882812 47.011875 2 48 C1.01 48.495 1.01 48.495 0 49 C0 32.83 0 16.66 0 0 Z " fill="#FDF4F5" transform="translate(79,254)"/>
<path d="M0 0 C13.44000905 -0.56788771 26.58817052 0.36359549 39.9375 1.8125 C40.73571167 1.89536255 41.53392334 1.9782251 42.35632324 2.06359863 C44.66505784 2.30629261 46.97117864 2.56612918 49.27734375 2.83203125 C49.96728928 2.90406265 50.6572348 2.97609406 51.36808777 3.05030823 C55.77785081 3.58930306 59.14342831 4.81382392 63 7 C63.1875 9.875 63.1875 9.875 63 13 C62.01 13.66 61.02 14.32 60 15 C59.34 14.34 58.68 13.68 58 13 C58.66 13 59.32 13 60 13 C59.34 12.34 58.68 11.68 58 11 C57.505 10.01 57.505 10.01 57 9 C55.08765135 8.70967644 53.17191775 8.43277075 51.24755859 8.23730469 C48.48067889 7.94516836 45.7528744 7.46616421 43.01123047 6.99780273 C32.20500726 5.16556835 21.34981535 4.05235261 10.43676758 3.09033203 C9.22786865 2.9767334 8.01896973 2.86313477 6.7734375 2.74609375 C5.14027588 2.60192017 5.14027588 2.60192017 3.47412109 2.45483398 C2.65766113 2.30473877 1.84120117 2.15464355 1 2 C0.67 1.34 0.34 0.68 0 0 Z M61 9 C60.67 9.66 60.34 10.32 60 11 C60.66 11 61.32 11 62 11 C61.67 10.34 61.34 9.68 61 9 Z " fill="#181818" transform="translate(271,383)"/>
<path d="M0 0 C0.7734375 -0.01933594 1.546875 -0.03867188 2.34375 -0.05859375 C4.5 0.4375 4.5 0.4375 6.2890625 2.15625 C8.41939364 6.16951898 7.4391766 10.13120135 6.5 14.4375 C4.9375 17.5625 4.9375 17.5625 3.5 19.4375 C2.84 19.1075 2.18 18.7775 1.5 18.4375 C1.66371094 17.73238281 1.82742188 17.02726562 1.99609375 16.30078125 C2.51699824 13.34091312 2.59866732 10.62688727 2.5625 7.625 C2.55347656 6.64917969 2.54445313 5.67335938 2.53515625 4.66796875 C2.52355469 3.93191406 2.51195312 3.19585937 2.5 2.4375 C-1.95736352 5.72187312 -2.92431864 8.25883492 -3.8125 13.75 C-4.06144311 15.64333798 -4.2970954 17.53867639 -4.5 19.4375 C-5.16 19.4375 -5.82 19.4375 -6.5 19.4375 C-6.17 20.7575 -5.84 22.0775 -5.5 23.4375 C-6.16 23.4375 -6.82 23.4375 -7.5 23.4375 C-7.5 24.0975 -7.5 24.7575 -7.5 25.4375 C-8.49 25.4375 -9.48 25.4375 -10.5 25.4375 C-10.87140957 17.43156046 -11.26484455 8.41286979 -6.17578125 1.6875 C-4.0179342 0.07791712 -2.67358771 0.00445598 0 0 Z " fill="#0F0F0F" transform="translate(257.5,119.5625)"/>
<path d="M0 0 C0 29.7 0 59.4 0 90 C-0.33 90 -0.66 90 -1 90 C-1 60.96 -1 31.92 -1 2 C-7.4 2.2 -7.4 2.2 -9 4 C-9.12512144 6.67702436 -9.18606569 9.32952273 -9.20532227 12.00805664 C-9.21522186 12.84700974 -9.22512146 13.68596283 -9.23532104 14.55033875 C-9.26703185 17.3369154 -9.29173114 20.12350913 -9.31640625 22.91015625 C-9.33696752 24.83687292 -9.35796376 26.76358499 -9.37937927 28.69029236 C-9.43468542 33.771823 -9.48405688 38.85339492 -9.53222656 43.93499756 C-9.58237938 49.1162078 -9.63809783 54.2973578 -9.69335938 59.47851562 C-9.80104537 69.65229233 -9.902467 79.82612125 -10 90 C-8.68 90.33 -7.36 90.66 -6 91 C-7.65 91 -9.3 91 -11 91 C-11 61.3 -11 31.6 -11 1 C-6 0 -6 0 0 0 Z " fill="#C05057" transform="translate(56,218)"/>
<path d="M0 0 C1.875 0.3125 1.875 0.3125 4 1 C8.85028975 8.27543462 5.14472916 20.67005122 4 29 C5.32 28.67 6.64 28.34 8 28 C7.34 29.32 6.68 30.64 6 32 C1.57487107 32.35879424 1.57487107 32.35879424 -0.68359375 30.94921875 C-2.70116853 27.96177122 -2.09420997 25.05502212 -1.75 21.625 C-1.69207275 20.92052734 -1.63414551 20.21605469 -1.57446289 19.49023438 C-1.45411151 18.03883259 -1.32719422 16.5879609 -1.19384766 15.13769531 C-0.90279483 11.92804974 -0.67413868 8.71404778 -0.4375 5.5 C-0.29287272 3.66657113 -0.14753471 1.8331972 0 0 Z " fill="#0F0F0F" transform="translate(237,123)"/>
<path d="M0 0 C7.21914173 0.55884333 14.43641272 1.13800474 21.65283203 1.73095703 C24.61020676 1.9686687 27.56818879 2.18829113 30.52734375 2.40234375 C40.07774561 3.14116378 49.36953873 4.47433357 58.75 6.4375 C59.75756348 6.64286377 60.76512695 6.84822754 61.80322266 7.05981445 C62.72925293 7.26566162 63.6552832 7.47150879 64.609375 7.68359375 C65.43405273 7.86462646 66.25873047 8.04565918 67.10839844 8.23217773 C67.73262695 8.48555908 68.35685547 8.73894043 69 9 C69.495 10.485 69.495 10.485 70 12 C65.01225623 13.62946211 61.20631304 12.18527245 56.375 10.75 C41.85748954 6.70656515 27.29597386 4.8611545 12.2956543 3.64575195 C8.13184075 3.30789782 4.0756924 2.97202706 0 2 C0 1.34 0 0.68 0 0 Z " fill="#181818" transform="translate(279,371)"/>
<path d="M0 0 C0.33 0 0.66 0 1 0 C0.67 4.62 0.34 9.24 0 14 C-0.33 14 -0.66 14 -1 14 C-1 11.69 -1 9.38 -1 7 C-2.4800841 7.11362262 -3.95910074 7.24122908 -5.4375 7.375 C-6.26121094 7.44460937 -7.08492187 7.51421875 -7.93359375 7.5859375 C-8.61550781 7.72257812 -9.29742187 7.85921875 -10 8 C-10.33 8.66 -10.66 9.32 -11 10 C-11.99 10.33 -12.98 10.66 -14 11 C-14.33 12.65 -14.66 14.3 -15 16 C-15.33 16 -15.66 16 -16 16 C-16.125 10.25 -16.125 10.25 -15 8 C-16.258125 8.33 -17.51625 8.66 -18.8125 9 C-21.38987302 9.67603227 -23.30212925 10 -26 10 C-25.75 7.625 -25.75 7.625 -25 5 C-21.77389498 2.85945638 -18.40673836 2.43036018 -14.625 1.875 C-13.52414063 1.70742187 -12.42328125 1.53984375 -11.2890625 1.3671875 C-3.09514563 0.45242718 -3.09514563 0.45242718 0 2 C0 1.34 0 0.68 0 0 Z " fill="#1F1F1F" transform="translate(226,112)"/>
<path d="M0 0 C0.66 0 1.32 0 2 0 C4.72980027 3.75347537 5.78993082 7.56307968 7 12 C7.6549268 13.33913894 8.32214426 14.67232014 9 16 C11.57591104 22.11316688 12.4346213 27.88829716 12.7890625 34.49609375 C12.8439936 36.99678009 12.8439936 36.99678009 14 39 C14.04022391 41.3329866 14.04320247 43.66706666 14 46 C11.80927286 42.71390929 11.02287301 39.69131317 10.125 35.91796875 C9.95500488 35.2261702 9.78500977 34.53437164 9.60986328 33.8216095 C9.06764065 31.61156369 8.53337266 29.3996968 8 27.1875 C7.46544699 24.98632841 6.92916302 22.78560603 6.39013672 20.58552551 C6.05555652 19.21829564 5.72369312 17.85039702 5.39501953 16.48173523 C4.43852634 12.55429816 3.28469151 8.85407454 2 5 C1.67 20.84 1.34 36.68 1 53 C-0.32 52.67 -1.64 52.34 -3 52 C-2.01 52 -1.02 52 0 52 C0 34.84 0 17.68 0 0 Z " fill="#C93B42" transform="translate(78,251)"/>
<path d="M0 0 C-0.33 0.99 -0.66 1.98 -1 3 C-1 2.34 -1 1.68 -1 1 C-2.98 1.66 -4.96 2.32 -7 3 C-7.33 30.06 -7.66 57.12 -8 85 C-6.02 85 -4.04 85 -2 85 C-2 69.49 -2 53.98 -2 38 C-1.67 38 -1.34 38 -1 38 C-1 53.84 -1 69.68 -1 86 C-3.64 86 -6.28 86 -9 86 C-9 57.62 -9 29.24 -9 0 C-5.16380575 -0.95904856 -3.67568464 -0.91892116 0 0 Z " fill="#D9242E" transform="translate(79,216)"/>
<path d="M0 0 C8.97632135 0.44881607 18.03022663 2.84804486 24.8125 9.0625 C27 12 27 12 26.765625 14.04296875 C25.73736048 16.67133877 24.07193904 18.12857119 22 20 C21.34 19.67 20.68 19.34 20 19 C20.33 17.35 20.66 15.7 21 14 C15.35467227 10.20026018 9.8447832 7.62470882 3.44140625 5.30859375 C1 4 1 4 0.15234375 1.84765625 C0.10207031 1.23792969 0.05179687 0.62820313 0 0 Z " fill="#131313" transform="translate(347,381)"/>
<path d="M0 0 C0.66 0.33 1.32 0.66 2 1 C1.67 17.5 1.34 34 1 51 C-0.32 51.66 -1.64 52.32 -3 53 C-5.62875405 47.62819824 -6.6083965 42.95507399 -7 37 C-7.99 36.67 -8.98 36.34 -10 36 C-10.2150107 40.51522464 -9.44611724 43.75203061 -8 48 C-7.875 50.875 -7.875 50.875 -8 53 C-10.77197463 47.68503995 -13.98878223 41.0974904 -13 35 C-11.5 31.6875 -11.5 31.6875 -10 29 C-9 30.33333333 -8 31.66666667 -7 33 C-6.2265625 33.86625 -6.2265625 33.86625 -5.4375 34.75 C-2.63840383 39.13119401 -2 43.87195294 -2 49 C-1.34 49 -0.68 49 0 49 C0 32.83 0 16.66 0 0 Z " fill="#D62830" transform="translate(93,211)"/>
<path d="M0 0 C0.99 0 1.98 0 3 0 C2.67 8.25 2.34 16.5 2 25 C-1 26 -1 26 -3 26 C-3.66 26.99 -4.32 27.98 -5 29 C-5.33756406 19.04186034 -4.59525958 8.98164373 0 0 Z " fill="#DDDDDD" transform="translate(234,128)"/>
<path d="M0 0 C1.65 0 3.3 0 5 0 C5 29.04 5 58.08 5 88 C0.05 88.99 0.05 88.99 -5 90 C-5 86.7 -5 83.4 -5 80 C-3 84 -3 84 -3 87 C0.465 86.505 0.465 86.505 4 86 C4 57.95 4 29.9 4 1 C2.68 0.67 1.36 0.34 0 0 Z " fill="#CA232A" transform="translate(97,210)"/>
<path d="M0 0 C2.1235547 2.1235547 2.47275975 3.04257145 3.25390625 5.8515625 C3.46853516 6.62113281 3.68316406 7.39070313 3.90429688 8.18359375 C4.12150391 8.98925781 4.33871094 9.79492188 4.5625 10.625 C4.78357422 11.40746094 5.00464844 12.18992187 5.23242188 12.99609375 C6.60454956 17.99544719 7.4747893 22.84231292 8 28 C7.67 27.01 7.34 26.02 7 25 C6.34 25 5.68 25 5 25 C4.34 23.35 3.68 21.7 3 20 C2.34 20 1.68 20 1 20 C1 29.57 1 39.14 1 49 C0.67 49 0.34 49 0 49 C0 32.83 0 16.66 0 0 Z " fill="#FBC2C5" transform="translate(79,254)"/>
<path d="M0 0 C0.33 0 0.66 0 1 0 C1 29.7 1 59.4 1 90 C5.95 89.505 5.95 89.505 11 89 C8.14521674 90.90318884 6.58058692 91.4619099 3.3125 92.125 C2.50425781 92.29257812 1.69601563 92.46015625 0.86328125 92.6328125 C0.24839844 92.75398438 -0.36648437 92.87515625 -1 93 C-1 91.68 -1 90.36 -1 89 C-1.66 88.67 -2.32 88.34 -3 88 C-2.01 87.01 -2.01 87.01 -1 86 C-0.78241171 83.26101058 -0.68858368 80.62011167 -0.68115234 77.87841797 C-0.67110672 77.03931885 -0.6610611 76.20021973 -0.65071106 75.33569336 C-0.61975214 72.55453189 -0.6028088 69.77346722 -0.5859375 66.9921875 C-0.56723606 65.06689615 -0.54766343 63.14161309 -0.5272522 61.21633911 C-0.47581677 56.14305494 -0.43625226 51.06974415 -0.39910889 45.99633789 C-0.3591406 40.82170977 -0.30801562 35.64719341 -0.2578125 30.47265625 C-0.16091818 20.31518255 -0.07655679 10.15764591 0 0 Z " fill="#FCC2C4" transform="translate(44,219)"/>
<path d="M0 0 C0.96237484 3.79065235 1.91914452 7.58269894 2.875 11.375 C3.14441406 12.43589844 3.41382812 13.49679688 3.69140625 14.58984375 C5.31136687 21.03017498 6.7735542 27.47296878 8 34 C5.12998946 31.1928938 3.12788417 29.14927906 2.87890625 24.96484375 C2.87539886 22.97615591 2.9337471 20.98758702 3 19 C2.34 19 1.68 19 1 19 C-0.43336231 13.64878069 -1.40984815 8.50808397 -2 3 C-6.455 3.495 -6.455 3.495 -11 4 C-11 3.34 -11 2.68 -11 2 C-7.12315913 0.80712589 -4.08378077 0 0 0 Z " fill="#D93C47" transform="translate(80,213)"/>
<path d="M0 0 C5.28 0 10.56 0 16 0 C16 3.3 16 6.6 16 10 C14.35 8.68 12.7 7.36 11 6 C10.67 6.66 10.34 7.32 10 8 C9.34 7.34 8.68 6.68 8 6 C5.79749008 5.53993654 5.79749008 5.53993654 3.375 5.375 C2.55773437 5.30023438 1.74046875 5.22546875 0.8984375 5.1484375 C0.27195312 5.09945313 -0.35453125 5.05046875 -1 5 C-0.67 3.35 -0.34 1.7 0 0 Z " fill="#494949" transform="translate(277,326)"/>
<path d="M0 0 C4.29887694 4.29887694 4.125 12.34776171 4.125 18.1875 C4.08375 19.445625 4.0425 20.70375 4 22 C1.69 22 -0.62 22 -3 22 C-2.69003741 19.27052356 -2.37712025 16.54144015 -2.0625 13.8125 C-1.97548828 13.04357422 -1.88847656 12.27464844 -1.79882812 11.48242188 C-1.35035579 7.61227172 -0.8470999 3.80813376 0 0 Z " fill="#EAEAEA" transform="translate(264,211)"/>
<path d="M0 0 C0.66 1.32 1.32 2.64 2 4 C1.525625 4.4125 1.05125 4.825 0.5625 5.25 C-1.16266518 7.182185 -1.56584875 8.48192275 -2 11 C-1.01 11.33 -0.02 11.66 1 12 C-0.65 13.65 -2.3 15.3 -4 17 C-6.68609622 13.19469703 -7.59490938 10.66012347 -7 6 C-5.21906331 2.79431396 -3.36370321 1.39187719 0 0 Z " fill="#121212" transform="translate(105,388)"/>
<path d="M0 0 C22.59489033 -0.20638953 22.59489033 -0.20638953 33 1 C33.495 2.98 33.495 2.98 34 5 C32.70707031 4.86722656 31.41414063 4.73445313 30.08203125 4.59765625 C28.32554006 4.41908162 26.56902823 4.24070988 24.8125 4.0625 C23.90588623 3.9696875 22.99927246 3.876875 22.06518555 3.78125 C15.79280638 3.14928346 9.53492942 2.66378294 3.23828125 2.34375 C2.49964844 2.2303125 1.76101563 2.116875 1 2 C0.67 1.34 0.34 0.68 0 0 Z " fill="#4C4C4C" transform="translate(271,383)"/>
<path d="M0 0 C0 0.66 0 1.32 0 2 C-4.40972455 2.45698414 -8.82044699 2.90208465 -13.23242188 3.33666992 C-14.73013831 3.4858288 -16.22754716 3.63811317 -17.72460938 3.79370117 C-19.88856953 4.01803171 -22.05342229 4.23073575 -24.21875 4.44140625 C-25.51748047 4.57232666 -26.81621094 4.70324707 -28.15429688 4.83813477 C-32.29028419 5.01221803 -35.91714514 4.62156302 -40 4 C-40 3.67 -40 3.34 -40 3 C-13.24874212 -0.58165209 -13.24874212 -0.58165209 0 0 Z " fill="#363636" transform="translate(181,373)"/>
<path d="M0 0 C2.4375 0.1875 2.4375 0.1875 3.4375 1.1875 C3.51063567 3.71799402 3.52997527 6.22054837 3.5 8.75 C3.49548828 9.46091797 3.49097656 10.17183594 3.48632812 10.90429688 C3.47450864 12.66540013 3.45657263 14.42646036 3.4375 16.1875 C2.4475 16.1875 1.4575 16.1875 0.4375 16.1875 C0.4375 13.2175 0.4375 10.2475 0.4375 7.1875 C-0.2225 7.1875 -0.8825 7.1875 -1.5625 7.1875 C-2.2225 8.5075 -2.8825 9.8275 -3.5625 11.1875 C-3.78424933 9.73114629 -3.98948698 8.27227044 -4.1875 6.8125 C-4.30351562 6.00039063 -4.41953125 5.18828125 -4.5390625 4.3515625 C-4.54679687 3.63742187 -4.55453125 2.92328125 -4.5625 2.1875 C-2.5625 0.1875 -2.5625 0.1875 0 0 Z " fill="#1C1C1C" transform="translate(371.5625,273.8125)"/>
<path d="M0 0 C0.66 0 1.32 0 2 0 C2.53341607 6.26763879 0.8156571 10.44784083 -2 16 C-2.33 16.66 -2.66 17.32 -3 18 C-3.66 18 -4.32 18 -5 18 C-5.325465 11.90054478 -5.44874186 7.3057567 -2 2 C-1.34 1.34 -0.68 0.68 0 0 Z " fill="#D6D6D6" transform="translate(258,122)"/>
<path d="M0 0 C3 2 3 2 3.43359375 4.1015625 C3.44351564 10.51110601 2.27067626 14.48073381 -1 20 C-1.66 20 -2.32 20 -3 20 C-3.2553681 5.64263804 -3.2553681 5.64263804 0 0 Z " fill="#E3E3E3" transform="translate(244,132)"/>
<path d="M0 0 C2.475 0.99 2.475 0.99 5 2 C5.33 6.29 5.66 10.58 6 15 C5.01 15 4.02 15 3 15 C2.67 15.99 2.34 16.98 2 18 C1.34 18 0.68 18 0 18 C0 12.06 0 6.12 0 0 Z " fill="#030303" transform="translate(367,279)"/>
<path d="M0 0 C1.85769414 3.57799785 3.0505022 7.12517717 4.1875 11 C4.55230469 12.216875 4.91710937 13.43375 5.29296875 14.6875 C5.94211789 17.72881752 6.11269179 19.16511645 5 22 C4.01 21.34 3.02 20.68 2 20 C2 21.98 2 23.96 2 26 C1.67 26 1.34 26 1 26 C0.22471521 22.57426063 -0.11918778 19.42760755 -0.09765625 15.91796875 C-0.09443359 14.98662109 -0.09121094 14.05527344 -0.08789062 13.09570312 C-0.07951172 12.13599609 -0.07113281 11.17628906 -0.0625 10.1875 C-0.05798828 9.20845703 -0.05347656 8.22941406 -0.04882812 7.22070312 C-0.03708684 4.81373889 -0.02066419 2.40690143 0 0 Z " fill="#DFDFDF" transform="translate(127,244)"/>
<path d="M0 0 C-3.35846491 2.2389766 -6.58891321 3.12872154 -10.4375 4.125 C-11.44006836 4.39763672 -11.44006836 4.39763672 -12.46289062 4.67578125 C-15.7948763 5.55418382 -18.52536772 6 -22 6 C-22.33 5.34 -22.66 4.68 -23 4 C-25.02463255 3.34786708 -25.02463255 3.34786708 -27 3 C-17.76838596 0.67479586 -9.53748149 -0.4277608 0 0 Z " fill="#282828" transform="translate(149,377)"/>
<path d="M0 0 C1.875 0.125 1.875 0.125 4 1 C5.25 4.0625 5.25 4.0625 6 7 C5.01 6.67 4.02 6.34 3 6 C2.01 6.66 1.02 7.32 0 8 C-0.33 7.34 -0.66 6.68 -1 6 C-1.33 13.92 -1.66 21.84 -2 30 C-2.33 30 -2.66 30 -3 30 C-3.08708752 25.7501291 -3.14042181 21.50048761 -3.1875 17.25 C-3.21263672 16.0434375 -3.23777344 14.836875 -3.26367188 13.59375 C-3.27333984 12.43359375 -3.28300781 11.2734375 -3.29296875 10.078125 C-3.3086792 9.00981445 -3.32438965 7.94150391 -3.34057617 6.84082031 C-2.96029894 3.66884478 -2.12893092 2.32782758 0 0 Z " fill="#C4C4C4" transform="translate(376,295)"/>
<path d="M0 0 C-1.485 2.475 -1.485 2.475 -3 5 C-0.69 5 1.62 5 4 5 C4 5.33 4 5.66 4 6 C-2.64409958 6.21432579 -8.53205867 5.51233701 -15 4 C-15 3.34 -15 2.68 -15 2 C-13.25364835 1.46706165 -11.50272348 0.94909337 -9.75 0.4375 C-8.77546875 0.14746094 -7.8009375 -0.14257812 -6.796875 -0.44140625 C-4.03756068 -0.99249836 -2.6087176 -0.93789609 0 0 Z " fill="#CECECE" transform="translate(159,390)"/>
<path d="M0 0 C4.97093824 0.41153737 9.44508386 0.79600832 14 3 C13.67 4.65 13.34 6.3 13 8 C11.39253944 7.57476184 9.78910164 7.13429874 8.1875 6.6875 C7.29417969 6.44386719 6.40085937 6.20023437 5.48046875 5.94921875 C2.92513913 4.97135245 1.66290803 4.14907383 0 2 C0 1.34 0 0.68 0 0 Z " fill="#1B1B1B" transform="translate(347,381)"/>
<path d="M0 0 C0.66 0.33 1.32 0.66 2 1 C1.3125 3.4375 1.3125 3.4375 0 6 C-0.804375 6.12375 -1.60875 6.2475 -2.4375 6.375 C-3.7059375 6.684375 -3.7059375 6.684375 -5 7 C-5.6496875 8.7015625 -5.6496875 8.7015625 -6.3125 10.4375 C-8 14 -8 14 -9.9609375 14.90625 C-12.1875 15.4375 -12.1875 15.4375 -16 16 C-11.82022535 9.22588247 -6.25996307 4.83475256 0 0 Z " fill="#151515" transform="translate(172,70)"/>
<path d="M0 0 C0.66 0 1.32 0 2 0 C2.99 3.63 3.98 7.26 5 11 C4.67 11.33 4.34 11.66 4 12 C3.76321284 14.69235776 3.57801975 17.36498156 3.4375 20.0625 C3.39431641 20.82111328 3.35113281 21.57972656 3.30664062 22.36132812 C3.20026367 24.24065438 3.09960066 26.12030244 3 28 C2.67 28 2.34 28 2 28 C2 20.74 2 13.48 2 6 C-1.63 6.33 -5.26 6.66 -9 7 C-5 5 -5 5 -2 4 C-0.79117904 1.99983534 -0.79117904 1.99983534 0 0 Z " fill="#FEF4F0" transform="translate(54,212)"/>
<path d="M0 0 C0.33 0 0.66 0 1 0 C1 16.5 1 33 1 50 C-1.12508244 46.81237635 -1.5020163 44.73487777 -2 41 C-1.34 41 -0.68 41 0 41 C0 27.47 0 13.94 0 0 Z " fill="#D9D9D9" transform="translate(139,201)"/>
<path d="M0 0 C1.49080078 0.29197266 1.49080078 0.29197266 3.01171875 0.58984375 C4.15060547 0.82380859 4.15060547 0.82380859 5.3125 1.0625 C5.3125 1.7225 5.3125 2.3825 5.3125 3.0625 C-1.15544133 4.57483701 -7.04340042 5.27682579 -13.6875 5.0625 C-13.6875 4.7325 -13.6875 4.4025 -13.6875 4.0625 C-12.0375 3.7325 -10.3875 3.4025 -8.6875 3.0625 C-8.6875 2.0725 -8.6875 1.0825 -8.6875 0.0625 C-5.21237282 -1.09587573 -3.55079714 -0.71015943 0 0 Z " fill="#E0E0E0" transform="translate(322.6875,390.9375)"/>
<path d="M0 0 C2.97 0.495 2.97 0.495 6 1 C6 5.29 6 9.58 6 14 C5.01 13.34 4.02 12.68 3 12 C2.8125 9.375 2.8125 9.375 3 7 C2.01 7.33 1.02 7.66 0 8 C0.33 6.35 0.66 4.7 1 3 C0.01 3.33 -0.98 3.66 -2 4 C-1.34 2.68 -0.68 1.36 0 0 Z " fill="#1F1F1F" transform="translate(297,288)"/>
<path d="M0 0 C-0.99 0.33 -1.98 0.66 -3 1 C-4.72943475 2.31267956 -4.72943475 2.31267956 -6 4 C-6 4.99 -6 5.98 -6 7 C-8.31 7 -10.62 7 -13 7 C-13 5.68 -13 4.36 -13 3 C-13.99 2.34 -14.98 1.68 -16 1 C-14.0852312 0.63571223 -12.16807707 0.28394694 -10.25 -0.0625 C-9.18265625 -0.25972656 -8.1153125 -0.45695312 -7.015625 -0.66015625 C-4.25228095 -0.97156937 -2.59053383 -0.8991416 0 0 Z " fill="#DDDDDD" transform="translate(326,279)"/>
<path d="M0 0 C0.33 0 0.66 0 1 0 C1.33 11.55 1.66 23.1 2 35 C0.515 35.495 0.515 35.495 -1 36 C-1.84454356 32.62182575 -2.10844919 30.32534757 -1 27 C-1.66 26.67 -2.32 26.34 -3 26 C-2.01 26 -1.02 26 0 26 C0 17.42 0 8.84 0 0 Z " fill="#CCCCCC" transform="translate(365,293)"/>
<path d="M0 0 C0.66 0.99 1.32 1.98 2 3 C-2.26616316 4.13764351 -5.56486311 5 -10 5 C-10 4.34 -10 3.68 -10 3 C-11.32 2.34 -12.64 1.68 -14 1 C-12.41913952 0.63495397 -10.83516093 0.28339494 -9.25 -0.0625 C-8.36828125 -0.25972656 -7.4865625 -0.45695312 -6.578125 -0.66015625 C-3.95293413 -1.00620414 -2.43545821 -1.01124461 0 0 Z " fill="#181818" transform="translate(158,386)"/>
<path d="M0 0 C1.3484585 3.06467841 0.91740262 4.2434449 -0.1875 7.5 C-2.4783946 11.92379648 -4.23011942 14.41003981 -9 16 C-9 15.01 -9 14.02 -9 13 C-9.66 12.67 -10.32 12.34 -11 12 C-10.2575 11.79375 -9.515 11.5875 -8.75 11.375 C-4.11455361 9.0572768 -2.11295226 4.57806323 0 0 Z " fill="#1B1B1B" transform="translate(268,136)"/>
<path d="M0 0 C0.33 0 0.66 0 1 0 C0.75 3.375 0.75 3.375 0 7 C-2.16923658 8.6094336 -3.31923129 9 -6 9 C-7.66965451 9.31802943 -9.33678518 9.64984951 -11 10 C-9.89184175 6.78634109 -9.01470446 6.0085776 -6 4.25 C-3 3 -3 3 -1 3 C-0.67 2.01 -0.34 1.02 0 0 Z " fill="#090909" transform="translate(373,396)"/>
<path d="M0 0 C0.66 0 1.32 0 2 0 C2.33 2.31 2.66 4.62 3 7 C3.99 7.33 4.98 7.66 6 8 C6 12.29 6 16.58 6 21 C2.939536 16.91938134 2.28248969 14.81824175 1.3125 9.9375 C1.06113281 8.70902344 0.80976562 7.48054687 0.55078125 6.21484375 C0 3 0 3 0 0 Z " fill="#F9CBCB" transform="translate(86,237)"/>
<path d="M0 0 C1.90368048 2.79953012 1.99184124 4.15773599 1.8125 7.625 C1 11 1 11 -2 13 C-2.99 13 -3.98 13 -5 13 C-5.33 13.66 -5.66 14.32 -6 15 C-6 14.34 -6 13.68 -6 13 C-6.66 13 -7.32 13 -8 13 C-8 12.01 -8 11.02 -8 10 C-6.68 10.33 -5.36 10.66 -4 11 C-2.50859979 7.37802806 -1.2125738 3.72433382 0 0 Z " fill="#242424" transform="translate(259,129)"/>
<path d="M0 0 C8.25 0.66 16.5 1.32 25 2 C21.09866368 4.60089088 18.09558103 4.03865206 13.625 3.6875 C12.49191406 3.61499023 12.49191406 3.61499023 11.3359375 3.54101562 C7.48333005 3.27497018 3.77102574 2.87890441 0 2 C0 1.34 0 0.68 0 0 Z " fill="#666666" transform="translate(279,371)"/>
<path d="M0 0 C2.31 0 4.62 0 7 0 C7 0.66 7 1.32 7 2 C7.99 2 8.98 2 10 2 C10 2.66 10 3.32 10 4 C7.59454362 5.20272819 6.05003047 5.10071472 3.375 5.0625 C2.14910156 5.04896484 2.14910156 5.04896484 0.8984375 5.03515625 C-0.04128906 5.01775391 -0.04128906 5.01775391 -1 5 C-0.67 3.35 -0.34 1.7 0 0 Z " fill="#111111" transform="translate(277,326)"/>
<path d="M0 0 C0 0.66 0 1.32 0 2 C-0.99 2.495 -0.99 2.495 -2 3 C-0.68 3.66 0.64 4.32 2 5 C0.58461283 5.33872513 -0.83237963 5.67074624 -2.25 6 C-3.03890625 6.185625 -3.8278125 6.37125 -4.640625 6.5625 C-7 7 -7 7 -11 7 C-11.33 5.35 -11.66 3.7 -12 2 C-11.0925 2.04125 -10.185 2.0825 -9.25 2.125 C-5.70215167 1.98854429 -3.33917672 0 0 0 Z " fill="#E6E6E6" transform="translate(264,150)"/>
<path d="M0 0 C3 2 3 2 3.6875 4.625 C3.790625 5.40875 3.89375 6.1925 4 7 C-1.75 12 -1.75 12 -4 12 C-4.33 10.35 -4.66 8.7 -5 7 C-3.68 7 -2.36 7 -1 7 C-0.67 4.69 -0.34 2.38 0 0 Z " fill="#1B1B1B" transform="translate(382,325)"/>
<path d="M0 0 C0.33 0 0.66 0 1 0 C1.33 6.93 1.66 13.86 2 21 C2.99 21.33 3.98 21.66 5 22 C5 18.7 5 15.4 5 12 C5.33 12 5.66 12 6 12 C6 15.63 6 19.26 6 23 C4.35 23.33 2.7 23.66 1 24 C0 23 0 23 -0.11352539 20.77514648 C-0.10828857 19.81680908 -0.10305176 18.85847168 -0.09765625 17.87109375 C-0.09443359 16.83662109 -0.09121094 15.80214844 -0.08789062 14.73632812 C-0.07951172 13.64771484 -0.07113281 12.55910156 -0.0625 11.4375 C-0.05798828 10.34501953 -0.05347656 9.25253906 -0.04882812 8.12695312 C-0.03699826 5.41791505 -0.02051543 2.70898401 0 0 Z " fill="#464646" transform="translate(209,136)"/>
<path d="M0 0 C2.39591038 -0.02712351 4.79150957 -0.0468982 7.1875 -0.0625 C7.86103516 -0.07087891 8.53457031 -0.07925781 9.22851562 -0.08789062 C12.95434131 -0.10606538 16.3788042 0.10700608 20 1 C20 1.66 20 2.32 20 3 C6.3667426 3.3690205 6.3667426 3.3690205 0 1 C0 0.67 0 0.34 0 0 Z " fill="#080808" transform="translate(298,385)"/>
<path d="M0 0 C9.63225483 -0.26349633 18.5005349 0.38306977 28 2 C28 2.33 28 2.66 28 3 C18.40432207 3.23889655 9.46850826 2.78831859 0 1 C0 0.67 0 0.34 0 0 Z " fill="#3D3D3D" transform="translate(301,374)"/>
<path d="M0 0 C0.66 0.33 1.32 0.66 2 1 C2.62599243 4.38035912 3 7.56169885 3 11 C1.02 9.68 -0.96 8.36 -3 7 C-2.25 2.25 -2.25 2.25 0 0 Z " fill="#E0E0E0" transform="translate(106,392)"/>
<path d="M0 0 C1.974667 2.96200051 2.71955354 5.09771632 3.625 8.5 C3.88539062 9.4590625 4.14578125 10.418125 4.4140625 11.40625 C5 14 5 14 5 17 C8.96 16.505 8.96 16.505 13 16 C9.86501708 17.85776765 7.62528568 18.20140476 4 18 C0.38247261 12.33778322 0.30959957 6.59767367 0 0 Z " fill="#F3C0BF" transform="translate(87,283)"/>
<path d="M0 0 C1.16306443 3.54950034 0.92365049 6.55823948 0.5625 10.25 C0.40974609 11.86648437 0.40974609 11.86648437 0.25390625 13.515625 C0.17011719 14.33546875 0.08632812 15.1553125 0 16 C-0.66 16 -1.32 16 -2 16 C-2.22211116 14.06403108 -2.42722992 12.12610672 -2.625 10.1875 C-2.74101562 9.10855469 -2.85703125 8.02960938 -2.9765625 6.91796875 C-3 4 -3 4 -1 1 C-0.67 0.67 -0.34 0.34 0 0 Z " fill="#D9D9D9" transform="translate(226,224)"/>
<path d="M0 0 C2 2 2 2 2.1953125 5.4765625 C2.18201493 6.85950968 2.15816232 8.24238654 2.125 9.625 C2.11597656 10.33140625 2.10695313 11.0378125 2.09765625 11.765625 C2.07407603 13.51056098 2.03820461 15.25532295 2 17 C1.67 17 1.34 17 1 17 C0.44295576 14.73288983 -0.09517831 12.46112613 -0.625 10.1875 C-0.92664063 8.92292969 -1.22828125 7.65835938 -1.5390625 6.35546875 C-2 3 -2 3 0 0 Z " fill="#F4F4F4" transform="translate(420,177)"/>
<path d="M0 0 C-0.99 0 -1.98 0 -3 0 C-3.33 0.99 -3.66 1.98 -4 3 C-4.66 3 -5.32 3 -6 3 C-6 8.94 -6 14.88 -6 21 C-6.33 21 -6.66 21 -7 21 C-7 14.07 -7 7.14 -7 0 C-3.86650268 -1.04449911 -3.01031744 -0.93423645 0 0 Z " fill="#B9B9B9" transform="translate(307,328)"/>
<path d="M0 0 C2.43184212 2.43184212 2.79751051 4.20052675 3.6875 7.5 C4.09548828 8.96953125 4.09548828 8.96953125 4.51171875 10.46875 C5 13 5 13 4 15 C0.40621058 9.60931587 -0.45356243 6.46326465 0 0 Z " fill="#C7323D" transform="translate(83,232)"/>
<path d="M0 0 C0.33 1.65 0.66 3.3 1 5 C-0.98 5.99 -0.98 5.99 -3 7 C-3.66 6.01 -4.32 5.02 -5 4 C-5.99 4 -6.98 4 -8 4 C-2.25 0 -2.25 0 0 0 Z " fill="#181818" transform="translate(110,385)"/>
<path d="M0 0 C1.98 0.99 1.98 0.99 4 2 C4 6.29 4 10.58 4 15 C1.81257986 11.7188698 1.45557194 9.66915644 0.875 5.8125 C0.70742187 4.72582031 0.53984375 3.63914063 0.3671875 2.51953125 C0.24601562 1.68808594 0.12484375 0.85664063 0 0 Z " fill="#FBD9D3" transform="translate(82,222)"/>
<path d="M0 0 C0.66 0.33 1.32 0.66 2 1 C1.34 2.65 0.68 4.3 0 6 C0.45375 5.505 0.9075 5.01 1.375 4.5 C3 3 3 3 5 3 C4.67 4.32 4.34 5.64 4 7 C1.625 7.1875 1.625 7.1875 -1 7 C-3 4 -3 4 -3 1 C-2.01 0.67 -1.02 0.34 0 0 Z " fill="#EBEBEB" transform="translate(257,141)"/>
<path d="M0 0 C0.042721 1.66611905 0.04063832 3.33382885 0 5 C-1 6 -1 6 -3.5625 6.0625 C-4.7690625 6.0315625 -4.7690625 6.0315625 -6 6 C-6 4.68 -6 3.36 -6 2 C-3 0 -3 0 0 0 Z " fill="#030303" transform="translate(270,177)"/>
<path d="M0 0 C1.64826111 2.96687001 2.44271087 5.65626525 3 9 C2.01 9.33 1.02 9.66 0 10 C0 9.34 0 8.68 0 8 C-1.98 8 -3.96 8 -6 8 C-5.67 7.34 -5.34 6.68 -5 6 C-4.01 6 -3.02 6 -2 6 C-1.34 4.02 -0.68 2.04 0 0 Z " fill="#373737" transform="translate(344,330)"/>
<path d="M0 0 C0.78375 0.04125 1.5675 0.0825 2.375 0.125 C1.385 0.455 0.395 0.785 -0.625 1.125 C-0.563125 2.0325 -0.50125 2.94 -0.4375 3.875 C-0.64172076 7.41482642 -1.27051835 8.57431155 -3.625 11.125 C-3.84674933 9.66864629 -4.05198698 8.20977044 -4.25 6.75 C-4.36601562 5.93789063 -4.48203125 5.12578125 -4.6015625 4.2890625 C-4.60929687 3.57492187 -4.61703125 2.86078125 -4.625 2.125 C-2.625 0.125 -2.625 0.125 0 0 Z " fill="#131313" transform="translate(371.625,273.875)"/>
<path d="M0 0 C-0.99 1.485 -0.99 1.485 -2 3 C-5.625 3.6875 -5.625 3.6875 -9 4 C-9 3.01 -9 2.02 -9 1 C-2.25 -1.125 -2.25 -1.125 0 0 Z " fill="#050505" transform="translate(128,381)"/>
<path d="M0 0 C1.98 0 3.96 0 6 0 C6 0.99 6 1.98 6 3 C2.86501708 4.85776765 0.62528568 5.20140476 -3 5 C-2.01 4.34 -1.02 3.68 0 3 C0 2.01 0 1.02 0 0 Z " fill="#222222" transform="translate(322,319)"/>
<path d="M0 0 C0.66 0 1.32 0 2 0 C2 1.98 2 3.96 2 6 C-1.63 6.33 -5.26 6.66 -9 7 C-5 5 -5 5 -2 4 C-0.79117904 1.99983534 -0.79117904 1.99983534 0 0 Z " fill="#FADBE0" transform="translate(54,212)"/>
<path d="M0 0 C0 1.65 0 3.3 0 5 C-0.99 5 -1.98 5 -3 5 C-3.33 5.66 -3.66 6.32 -4 7 C-4.99 7.33 -5.98 7.66 -7 8 C-7 5 -7 5 -4.625 2.3125 C-2 0 -2 0 0 0 Z " fill="#2E2E2E" transform="translate(237,123)"/>
<path d="M0 0 C0 0.33 0 0.66 0 1 C-1.2065625 1.185625 -1.2065625 1.185625 -2.4375 1.375 C-3.283125 1.58125 -4.12875 1.7875 -5 2 C-5.33 2.66 -5.66 3.32 -6 4 C-6.66 3.67 -7.32 3.34 -8 3 C-10.0374763 2.77141886 -12.08040303 2.58975722 -14.125 2.4375 C-15.76855469 2.31181641 -15.76855469 2.31181641 -17.4453125 2.18359375 C-18.28835938 2.12300781 -19.13140625 2.06242187 -20 2 C-20 1.67 -20 1.34 -20 1 C-13.31184516 0.37577221 -6.71884955 -0.12920865 0 0 Z " fill="#BABABA" transform="translate(296,426)"/>
<path d="M0 0 C0.4125 0.45375 0.825 0.9075 1.25 1.375 C2.91435498 3.0922331 2.91435498 3.0922331 5.0625 3.9375 C7.45578707 5.24994775 8.00405747 6.51014367 9 9 C2.25 7.25 2.25 7.25 0 5 C-0.125 2.375 -0.125 2.375 0 0 Z " fill="#1E1E1E" transform="translate(138,391)"/>
<path d="M0 0 C0.66 1.32 1.32 2.64 2 4 C-1.625 7 -1.625 7 -5 7 C-3.75023244 3.34683329 -3.32901247 2.21934164 0 0 Z " fill="#090909" transform="translate(105,388)"/>
<path d="M0 0 C0.33 0 0.66 0 1 0 C1 4.29 1 8.58 1 13 C-1.31 13 -3.62 13 -6 13 C-5.34 12.67 -4.68 12.34 -4 12 C-3.67 11.34 -3.34 10.68 -3 10 C-2.34 10.33 -1.68 10.66 -1 11 C-0.67 7.37 -0.34 3.74 0 0 Z " fill="#242424" transform="translate(299,338)"/>
<path d="M0 0 C0.66 0 1.32 0 2 0 C1.609375 6.0546875 1.609375 6.0546875 1 8 C-0.98 8.99 -0.98 8.99 -3 10 C-2.01 6.7 -1.02 3.4 0 0 Z " fill="#242424" transform="translate(362,320)"/>
<path d="M0 0 C0 1.32 0 2.64 0 4 C-0.99 4.66 -1.98 5.32 -3 6 C-3 4.35 -3 2.7 -3 1 C-4.98 1.99 -4.98 1.99 -7 3 C-7 2.01 -7 1.02 -7 0 C-3.86650268 -1.04449911 -3.01031744 -0.93423645 0 0 Z " fill="#1A1A1A" transform="translate(263,121)"/>
<path d="M0 0 C0 1.98 0 3.96 0 6 C-0.66 5.01 -1.32 4.02 -2 3 C-6.455 3.495 -6.455 3.495 -11 4 C-11 3.34 -11 2.68 -11 2 C-7.12315913 0.80712589 -4.08378077 0 0 0 Z " fill="#B54149" transform="translate(80,213)"/>
<path d="M0 0 C0.66 0 1.32 0 2 0 C1.67 5.28 1.34 10.56 1 16 C0.67 16 0.34 16 0 16 C-0.06058594 15.30132812 -0.12117187 14.60265625 -0.18359375 13.8828125 C-0.26738281 12.97273437 -0.35117188 12.06265625 -0.4375 11.125 C-0.51871094 10.22007812 -0.59992188 9.31515625 -0.68359375 8.3828125 C-0.86989285 5.98889139 -0.86989285 5.98889139 -2 4 C-1.0625 1.875 -1.0625 1.875 0 0 Z " fill="#C4C4C4" transform="translate(209,120)"/>
<path d="M0 0 C1.21236328 0.01353516 1.21236328 0.01353516 2.44921875 0.02734375 C3.37154297 0.04474609 3.37154297 0.04474609 4.3125 0.0625 C1.15009418 2.17077055 -0.19407469 2.40067465 -3.875 2.6875 C-5.22658203 2.79964844 -5.22658203 2.79964844 -6.60546875 2.9140625 C-7.63607422 2.98753906 -7.63607422 2.98753906 -8.6875 3.0625 C-6.88341097 -0.54567807 -3.60175697 -0.05219938 0 0 Z " fill="#070707" transform="translate(144.6875,376.9375)"/>
<path d="M0 0 C-2.35968744 2.09749995 -3.54616994 2.96905704 -6.75 3.1875 C-7.86375 3.0946875 -7.86375 3.0946875 -9 3 C-9.33 3.66 -9.66 4.32 -10 5 C-12.475 4.01 -12.475 4.01 -15 3 C-15 2.67 -15 2.34 -15 2 C-13.43883181 1.66048381 -11.87598662 1.32867456 -10.3125 1 C-9.44238281 0.814375 -8.57226562 0.62875 -7.67578125 0.4375 C-5.06287036 0.01027953 -2.64186962 -0.07616201 0 0 Z " fill="#545454" transform="translate(400,251)"/>
<path d="M0 0 C2.39763185 2.39763185 2.34280586 3.33273498 2.625 6.625 C2.69976562 7.44226563 2.77453125 8.25953125 2.8515625 9.1015625 C2.90054687 9.72804687 2.94953125 10.35453125 3 11 C1.68 10.34 0.36 9.68 -1 9 C-0.67 6.03 -0.34 3.06 0 0 Z " fill="#CBCBCB" transform="translate(264,211)"/>
<path d="M0 0 C1.65 1.65 3.3 3.3 5 5 C4.67 5.99 4.34 6.98 4 8 C2.35 6.68 0.7 5.36 -1 4 C-0.67 2.68 -0.34 1.36 0 0 Z " fill="#E2E2E2" transform="translate(285,102)"/>
<path d="M0 0 C0.66 0 1.32 0 2 0 C1.40138258 2.35171131 0.73075648 4.6859378 0 7 C-0.99 7.495 -0.99 7.495 -2 8 C-2.6875 6.25 -2.6875 6.25 -3 4 C-1.6875 1.75 -1.6875 1.75 0 0 Z " fill="#1A1A1A" transform="translate(360,329)"/>
<path d="M0 0 C0.33 0 0.66 0 1 0 C1 3.3 1 6.6 1 10 C-0.98 10.33 -2.96 10.66 -5 11 C-4.360625 10.29875 -3.72125 9.5975 -3.0625 8.875 C-0.83613898 5.77158767 -0.34919057 3.75379861 0 0 Z " fill="#C1C1C1" transform="translate(292,316)"/>
<path d="M0 0 C1.32 0.66 2.64 1.32 4 2 C2.515 4.475 2.515 4.475 1 7 C0.01 5.68 -0.98 4.36 -2 3 C-1.34 2.67 -0.68 2.34 0 2 C0 1.34 0 0.68 0 0 Z " fill="#151515" transform="translate(233,371)"/>
<path d="M0 0 C0.66 0.33 1.32 0.66 2 1 C1.67 2.32 1.34 3.64 1 5 C-1.4375 4.625 -1.4375 4.625 -4 4 C-4.33 3.34 -4.66 2.68 -5 2 C-4.01 1.67 -3.02 1.34 -2 1 C-1.34 1.33 -0.68 1.66 0 2 C0 1.34 0 0.68 0 0 Z " fill="#E9E9E9" transform="translate(380,327)"/>
<path d="M0 0 C3 4 3 4 3 8 C2.34 8 1.68 8 1 8 C0.67 8.66 0.34 9.32 0 10 C0 6.7 0 3.4 0 0 Z " fill="#FBD0D2" transform="translate(80,258)"/>
<path d="M0 0 C0.99 0.66 1.98 1.32 3 2 C3 3.32 3 4.64 3 6 C1.35 6 -0.3 6 -2 6 C-1.34 4.02 -0.68 2.04 0 0 Z " fill="#131313" transform="translate(282,258)"/>
<path d="M0 0 C0.33 0 0.66 0 1 0 C1 1.65 1 3.3 1 5 C-0.75 6.125 -0.75 6.125 -3 7 C-5.25 6.125 -5.25 6.125 -7 5 C-6.401875 4.9175 -5.80375 4.835 -5.1875 4.75 C-2.40208027 3.79499895 -1.61977902 2.39110236 0 0 Z " fill="#CDCDCD" transform="translate(384,240)"/>
<path d="M0 0 C0.33 1.32 0.66 2.64 1 4 C3.31 4 5.62 4 8 4 C6 6 6 6 3.375 6.125 C2.59125 6.08375 1.8075 6.0425 1 6 C0.67 6.66 0.34 7.32 0 8 C-0.98120464 4.94736336 -0.98120464 3.05263664 0 0 Z " fill="#CBCBCB" transform="translate(421,232)"/>
<path d="M0 0 C0 0.66 0 1.32 0 2 C-0.99 2.495 -0.99 2.495 -2 3 C-0.68 3.66 0.64 4.32 2 5 C-0.64 5.33 -3.28 5.66 -6 6 C-6 5.01 -6 4.02 -6 3 C-2.66666667 0 -2.66666667 0 0 0 Z " fill="#D2D2D2" transform="translate(264,150)"/>
<path d="M0 0 C-3.53411321 2.12046792 -6.94393835 2.53199289 -11 3 C-10.67 2.01 -10.34 1.02 -10 0 C-6.7169902 -1.6415049 -3.57454967 -0.51888624 0 0 Z " fill="#FADAD7" transform="translate(80,212)"/>
<path d="M0 0 C0.99 0.33 1.98 0.66 3 1 C3 3.31 3 5.62 3 8 C1.35 6.68 -0.3 5.36 -2 4 C-1.34 3.34 -0.68 2.68 0 2 C0 1.34 0 0.68 0 0 Z " fill="#1F1F1F" transform="translate(366,387)"/>
<path d="M0 0 C0.99 0.66 1.98 1.32 3 2 C0.64031256 4.09749995 -0.54616994 4.96905704 -3.75 5.1875 C-4.86375 5.0946875 -4.86375 5.0946875 -6 5 C-5.195625 4.360625 -4.39125 3.72125 -3.5625 3.0625 C-1.7249496 1.59396498 -1.7249496 1.59396498 0 0 Z " fill="#2E2E2E" transform="translate(355,337)"/>
<path d="M0 0 C-0.33 0.99 -0.66 1.98 -1 3 C-1.99 2.67 -2.98 2.34 -4 2 C-5.66362417 1.65179959 -7.32995171 1.31595508 -9 1 C-9 0.67 -9 0.34 -9 0 C-5.62182575 -0.84454356 -3.32534757 -1.10844919 0 0 Z " fill="#C6C6C6" transform="translate(185,306)"/>
<path d="M0 0 C1.32 0.66 2.64 1.32 4 2 C3.01 2.495 3.01 2.495 2 3 C1.67 3.66 1.34 4.32 1 5 C0.01 5.33 -0.98 5.66 -2 6 C-1.34 4.02 -0.68 2.04 0 0 Z " fill="#E0E0E0" transform="translate(275,294)"/>
<path d="M0 0 C0.99 0 1.98 0 3 0 C3 1.98 3 3.96 3 6 C1.68 5.67 0.36 5.34 -1 5 C-0.67 3.35 -0.34 1.7 0 0 Z " fill="#E6E6E6" transform="translate(181,266)"/>
<path d="M0 0 C1.46726798 3.81489674 0.43336419 6.29011622 -1 10 C-2.1875 8.375 -2.1875 8.375 -3 6 C-1.625 2.75 -1.625 2.75 0 0 Z " fill="#313131" transform="translate(268,136)"/>
<path d="M0 0 C1.125 3.75 1.125 3.75 0 6 C-2.0625 6.625 -2.0625 6.625 -4 7 C-2.92598892 4.08482708 -2.22189824 2.22189824 0 0 Z " fill="#353535" transform="translate(253,120)"/>
<path d="M0 0 C1.125 1.6875 1.125 1.6875 2 4 C1.125 6.75 1.125 6.75 0 9 C-1.125 7.3125 -1.125 7.3125 -2 5 C-1.125 2.25 -1.125 2.25 0 0 Z " fill="#191919" transform="translate(252,335)"/>
<path d="M0 0 C0.66 0 1.32 0 2 0 C2.33 2.64 2.66 5.28 3 8 C2.34 8 1.68 8 1 8 C0.67 5.36 0.34 2.72 0 0 Z " fill="#C9444B" transform="translate(81,224)"/>
<path d="M0 0 C0.66 1.32 1.32 2.64 2 4 C1.34 4 0.68 4 0 4 C0 4.99 0 5.98 0 7 C1.65 7 3.3 7 5 7 C5 7.33 5 7.66 5 8 C3.02 8 1.04 8 -1 8 C-1.125 2.25 -1.125 2.25 0 0 Z " fill="#C1C1C1" transform="translate(178,163)"/>
<path d="M0 0 C2 3 2 3 1.75 5.125 C1 7 1 7 -1 8 C-1.04241723 5.66705225 -1.04092937 3.33297433 -1 1 C-0.67 0.67 -0.34 0.34 0 0 Z " fill="#F6F6F6" transform="translate(255,131)"/>
<path d="M0 0 C1.85776765 3.13498292 2.20140476 5.37471432 2 9 C0.10786631 6.61426621 -1.02391783 4.92824652 -2 2 C-1.34 1.34 -0.68 0.68 0 0 Z " fill="#161616" transform="translate(293,107)"/>
<path d="M0 0 C0.99 0.33 1.98 0.66 3 1 C0.63707344 3.52588702 -0.66462511 4.88820837 -4 6 C-2.25 1.125 -2.25 1.125 0 0 Z " fill="#1F1F1F" transform="translate(202,89)"/>
<path d="M0 0 C0.66 0.33 1.32 0.66 2 1 C1.34 2.65 0.68 4.3 0 6 C-1.65 5.67 -3.3 5.34 -5 5 C-3.35 3.35 -1.7 1.7 0 0 Z " fill="#232323" transform="translate(172,70)"/>
</svg>
